<?xml version="1.0" encoding="utf-8" standalone="no"?>
<!DOCTYPE svg PUBLIC "-//W3C//DTD SVG 1.1//EN"
  "http://www.w3.org/Graphics/SVG/1.1/DTD/svg11.dtd">
<svg xmlns:xlink="http://www.w3.org/1999/xlink" width="360pt" height="360pt" viewBox="0 0 360 360" xmlns="http://www.w3.org/2000/svg" version="1.1">
 <metadata>
  <rdf:RDF xmlns:dc="http://purl.org/dc/elements/1.1/" xmlns:cc="http://creativecommons.org/ns#" xmlns:rdf="http://www.w3.org/1999/02/22-rdf-syntax-ns#">
   <cc:Work>
    <dc:type rdf:resource="http://purl.org/dc/dcmitype/StillImage"/>
    <dc:date>2025-07-31T14:41:40.631448</dc:date>
    <dc:format>image/svg+xml</dc:format>
    <dc:creator>
     <cc:Agent>
      <dc:title>Matplotlib v3.10.3, https://matplotlib.org/</dc:title>
     </cc:Agent>
    </dc:creator>
   </cc:Work>
  </rdf:RDF>
 </metadata>
 <defs>
  <style type="text/css">*{stroke-linejoin: round; stroke-linecap: butt}</style>
 </defs>
 <g id="figure_1">
  <g id="patch_1">
   <path d="M 0 360 
L 360 360 
L 360 0 
L 0 0 
z
" style="fill: #ffffff"/>
  </g>
  <g id="axes_1">
   <g id="patch_2">
    <path d="M 55.7525 304.879375 
L 336.84 304.879375 
L 336.84 23.791875 
L 55.7525 23.791875 
z
" style="fill: #ffffff"/>
   </g>
   <g id="FillBetweenPolyCollection_1">
    <defs>
     <path id="mcc5b903c29" d="M 68.529205 -94.406117 
L 68.529205 -77.673174 
L 68.609347 -75.998998 
L 69.05013 -79.751267 
L 69.130273 -80.140284 
L 69.571056 -83.168382 
L 69.651198 -76.884679 
L 70.091982 -81.234757 
L 70.172124 -80.091244 
L 70.612907 -79.274355 
L 70.69305 -82.183509 
L 71.133833 -79.546395 
L 71.213975 -82.992568 
L 71.654759 -79.736321 
L 71.734901 -83.917721 
L 72.175684 -78.751596 
L 72.255827 -82.107184 
L 72.69661 -81.062358 
L 72.776753 -82.048091 
L 73.217536 -84.008614 
L 73.297678 -81.464249 
L 73.738462 -84.037628 
L 73.818604 -77.953423 
L 74.259387 -79.866756 
L 74.33953 -86.866498 
L 74.780313 -79.873769 
L 74.860455 -81.844442 
L 75.301239 -83.798582 
L 75.381381 -86.263807 
L 75.822164 -87.516372 
L 75.902307 -87.023485 
L 76.34309 -85.377977 
L 76.423232 -87.686527 
L 76.864016 -89.974478 
L 76.944158 -86.380002 
L 77.384941 -87.799071 
L 77.465084 -86.221359 
L 77.905867 -88.946346 
L 77.98601 -89.660396 
L 78.426793 -86.649877 
L 78.506935 -90.024525 
L 78.947719 -89.903014 
L 79.027861 -91.43732 
L 79.108003 -90.497414 
L 79.548787 -89.171507 
L 79.628929 -87.606583 
L 80.069712 -86.438569 
L 80.149855 -81.749894 
L 80.590638 -90.48077 
L 80.67078 -92.592192 
L 81.111564 -93.357098 
L 81.191706 -82.045678 
L 81.632489 -87.240058 
L 81.712632 -92.544584 
L 82.153415 -96.566069 
L 82.233558 -72.612921 
L 82.674341 -91.832801 
L 82.754483 -93.14492 
L 83.195267 -92.420837 
L 83.275409 -95.854587 
L 83.716192 -94.145134 
L 83.796335 -92.065573 
L 84.237118 -93.195177 
L 84.31726 -96.245219 
L 84.758044 -92.84893 
L 84.838186 -92.593938 
L 85.278969 -96.777351 
L 85.359112 -98.088053 
L 85.799895 -96.3563 
L 85.880037 -101.643887 
L 86.320821 -98.309382 
L 86.400963 -95.409246 
L 86.841746 -100.584451 
L 86.921889 -97.638156 
L 87.362672 -95.768271 
L 87.442815 -95.037099 
L 87.883598 -89.458103 
L 87.96374 -99.062931 
L 88.404524 -102.571589 
L 88.484666 -99.767654 
L 88.925449 -104.132909 
L 89.005592 -102.885016 
L 89.446375 -81.761568 
L 89.526517 -98.793528 
L 89.967301 -100.030476 
L 90.047443 -99.912101 
L 90.127585 -109.257497 
L 90.568369 -109.783335 
L 90.648511 -104.241528 
L 91.089294 -105.431093 
L 91.169437 -111.856318 
L 91.61022 -112.682528 
L 91.690363 -88.666502 
L 92.131146 -110.545699 
L 92.211288 -104.505638 
L 92.652072 -107.948019 
L 92.732214 -114.047266 
L 93.172997 -115.27726 
L 93.25314 -83.160202 
L 93.693923 -106.85436 
L 93.774065 -113.918765 
L 94.214849 -108.38992 
L 94.294991 -96.658671 
L 94.735774 -119.336309 
L 94.815917 -91.975067 
L 95.2567 -116.713704 
L 95.336842 -113.169619 
L 95.777626 -112.919943 
L 95.857768 -88.331672 
L 96.298551 -116.02169 
L 96.378694 -116.94411 
L 96.819477 -105.836455 
L 96.89962 -107.376774 
L 97.340403 -118.147948 
L 97.420545 -84.42056 
L 97.861329 -80.550022 
L 97.941471 -121.359626 
L 98.382254 -124.588241 
L 98.462397 -112.520945 
L 98.90318 -118.886414 
L 98.983322 -120.153071 
L 99.424106 -124.902313 
L 99.504248 -125.706318 
L 99.945031 -114.846893 
L 100.025174 -127.27366 
L 100.465957 -119.969698 
L 100.546099 -108.89997 
L 100.986883 -117.939841 
L 101.067025 -100.325961 
L 101.147168 -119.431457 
L 101.587951 -120.233741 
L 101.668093 -101.816255 
L 102.108877 -116.648874 
L 102.189019 -124.195761 
L 102.629802 -128.807547 
L 102.709945 -126.936355 
L 103.150728 -82.223475 
L 103.23087 -117.4706 
L 103.671654 -131.522398 
L 103.751796 -107.045954 
L 104.192579 -127.34849 
L 104.272722 -131.406879 
L 104.713505 -108.163369 
L 104.793647 -128.944219 
L 105.234431 -127.641425 
L 105.314573 -129.121896 
L 105.755356 -129.457617 
L 105.835499 -130.477831 
L 106.276282 -120.931436 
L 106.356425 -103.675814 
L 106.797208 -130.060949 
L 106.87735 -134.285824 
L 107.318134 -130.958942 
L 107.398276 -133.693903 
L 107.839059 -131.022125 
L 107.919202 -134.569642 
L 108.359985 -123.797803 
L 108.440127 -131.252854 
L 108.880911 -134.196468 
L 108.961053 -132.623121 
L 109.401836 -133.342039 
L 109.481979 -130.334379 
L 109.922762 -125.990268 
L 110.002904 -139.10958 
L 110.443688 -125.814001 
L 110.52383 -136.278979 
L 110.964613 -115.326889 
L 111.044756 -137.772386 
L 111.485539 -117.123384 
L 111.565682 -138.948958 
L 112.006465 -136.755296 
L 112.086607 -91.495686 
L 112.16675 -112.232821 
L 112.607533 -133.585203 
L 112.687675 -141.332548 
L 113.128459 -137.587686 
L 113.208601 -139.631843 
L 113.649384 -137.36775 
L 113.729527 -137.54827 
L 114.17031 -142.666922 
L 114.250452 -136.828137 
L 114.691236 -136.611736 
L 114.771378 -139.869817 
L 115.212161 -137.4769 
L 115.292304 -140.82254 
L 115.733087 -132.753043 
L 115.81323 -142.814276 
L 116.254013 -84.301861 
L 116.334155 -141.053332 
L 116.774939 -133.756574 
L 116.855081 -133.618918 
L 117.295864 -134.612273 
L 117.376007 -143.114826 
L 117.81679 -145.309435 
L 117.896932 -140.108959 
L 118.337716 -143.821894 
L 118.417858 -143.883401 
L 118.858641 -128.617281 
L 118.938784 -143.884958 
L 119.379567 -144.588086 
L 119.459709 -145.368649 
L 119.900493 -145.572655 
L 119.980635 -142.942007 
L 120.421418 -140.343058 
L 120.501561 -121.64661 
L 120.942344 -144.589896 
L 121.022487 -144.964591 
L 121.46327 -150.080789 
L 121.543412 -143.009261 
L 121.984195 -145.770544 
L 122.064338 -147.424296 
L 122.505121 -148.897045 
L 122.585264 -129.585922 
L 123.026047 -142.634981 
L 123.106189 -137.639248 
L 123.186332 -136.427447 
L 123.627115 -148.403412 
L 123.707257 -141.077784 
L 124.148041 -147.296091 
L 124.228183 -148.680782 
L 124.668966 -147.537282 
L 124.749109 -151.449937 
L 125.189892 -148.582774 
L 125.270035 -149.113945 
L 125.710818 -148.599719 
L 125.79096 -90.371467 
L 126.231743 -147.08636 
L 126.311886 -152.37091 
L 126.752669 -146.434136 
L 126.832812 -147.090549 
L 127.273595 -149.617914 
L 127.353737 -150.660803 
L 127.794521 -151.639934 
L 127.874663 -146.776213 
L 128.315446 -153.923057 
L 128.395589 -151.085611 
L 128.836372 -151.053652 
L 128.916514 -151.335499 
L 129.357298 -152.420809 
L 129.43744 -144.060339 
L 129.878223 -140.113895 
L 129.958366 -149.390643 
L 130.399149 -149.799606 
L 130.479292 -135.856078 
L 130.920075 -152.337996 
L 131.000217 -109.489878 
L 131.441 -152.328623 
L 131.521143 -148.938401 
L 131.961926 -146.906656 
L 132.042069 -151.832206 
L 132.482852 -150.251658 
L 132.562994 -150.53366 
L 133.003778 -151.702279 
L 133.08392 -149.408115 
L 133.524703 -152.000497 
L 133.604846 -157.706339 
L 133.684988 -151.031406 
L 134.125771 -73.322852 
L 134.205914 -67.89733 
L 134.646697 -155.121047 
L 134.72684 -155.100058 
L 135.167623 -152.927795 
L 135.247765 -155.945881 
L 135.688548 -154.529107 
L 135.768691 -154.334669 
L 136.209474 -154.730302 
L 136.289617 -138.970962 
L 136.7304 -154.990553 
L 136.810542 -153.325614 
L 137.251326 -151.698044 
L 137.331468 -154.850868 
L 137.772251 -155.009037 
L 137.852394 -152.500914 
L 138.293177 -154.985289 
L 138.373319 -154.506404 
L 138.814103 -154.738952 
L 138.894245 -152.887961 
L 139.335028 -155.63066 
L 139.415171 -154.993223 
L 139.855954 -154.952884 
L 139.936097 -148.46837 
L 140.37688 -120.29433 
L 140.457022 -130.083542 
L 140.897805 -82.34113 
L 140.977948 -159.068504 
L 141.418731 -159.700012 
L 141.498874 -153.385344 
L 141.939657 -155.81458 
L 142.019799 -157.08542 
L 142.460583 -160.177608 
L 142.540725 -157.536876 
L 142.981508 -157.298067 
L 143.061651 -159.358009 
L 143.502434 -158.234447 
L 143.582576 -158.887565 
L 144.02336 -157.910725 
L 144.103502 -155.962314 
L 144.544285 -151.630068 
L 144.624428 -160.208059 
L 144.70457 -158.641745 
L 145.145353 -159.286272 
L 145.225496 -156.960753 
L 145.666279 -160.982836 
L 145.746422 -160.373272 
L 146.187205 -156.00742 
L 146.267347 -157.157007 
L 146.708131 -162.782093 
L 146.788273 -144.496064 
L 147.229056 -160.298961 
L 147.309199 -162.071375 
L 147.749982 -156.009642 
L 147.830124 -160.334317 
L 148.270908 -158.250172 
L 148.35105 -161.261306 
L 148.791833 -163.2747 
L 148.871976 -159.190662 
L 149.312759 -162.781875 
L 149.392901 -161.096977 
L 149.833685 -160.562587 
L 149.913827 -163.375609 
L 150.35461 -160.302635 
L 150.434753 -160.517804 
L 150.875536 -163.797052 
L 150.955679 -160.358592 
L 151.396462 -161.443815 
L 151.476604 -158.46253 
L 151.917388 -157.115821 
L 151.99753 -163.888562 
L 152.438313 -158.756905 
L 152.518456 -160.34738 
L 152.959239 -160.074045 
L 153.039381 -162.052695 
L 153.480165 -162.447031 
L 153.560307 -162.958741 
L 154.00109 -161.728178 
L 154.081233 -160.452376 
L 154.522016 -165.850839 
L 154.602158 -159.418319 
L 155.042942 -166.046981 
L 155.123084 -161.566063 
L 155.563867 -161.562883 
L 155.64401 -161.4407 
L 155.724152 -160.676972 
L 156.164936 -164.876359 
L 156.245078 -163.311717 
L 156.685861 -160.879034 
L 156.766004 -166.705887 
L 157.206787 -162.658797 
L 157.286929 -160.457353 
L 157.727713 -161.769667 
L 157.807855 -165.543037 
L 158.248638 -165.269561 
L 158.328781 -160.05651 
L 158.769564 -164.291005 
L 158.849706 -165.359171 
L 159.29049 -158.388044 
L 159.370632 -164.779043 
L 159.811415 -161.836571 
L 159.891558 -140.969297 
L 160.332341 -160.408852 
L 160.412484 -155.538439 
L 160.853267 -162.835299 
L 160.933409 -151.452521 
L 161.374193 -164.408391 
L 161.454335 -169.093656 
L 161.895118 -163.40911 
L 161.975261 -163.603569 
L 162.416044 -163.827036 
L 162.496186 -144.172341 
L 162.93697 -162.205031 
L 163.017112 -163.634199 
L 163.457895 -162.13391 
L 163.538038 -167.918481 
L 163.978821 -165.030583 
L 164.058963 -163.546608 
L 164.499747 -163.985216 
L 164.579889 -162.161713 
L 165.020672 -168.306842 
L 165.100815 -160.846934 
L 165.541598 -168.298799 
L 165.621741 -138.451027 
L 166.062524 -169.351422 
L 166.142666 -166.104415 
L 166.58345 -165.540166 
L 166.663592 -167.736037 
L 166.743734 -169.110757 
L 167.184518 -168.22681 
L 167.26466 -142.900121 
L 167.705443 -166.060511 
L 167.785586 -166.175134 
L 168.226369 -165.439072 
L 168.306511 -167.615412 
L 168.747295 -165.056335 
L 168.827437 -167.433461 
L 169.26822 -168.712932 
L 169.348363 -167.432343 
L 169.789146 -167.991702 
L 169.869289 -160.40432 
L 170.310072 -167.881562 
L 170.390214 -168.318032 
L 170.830998 -168.137612 
L 170.91114 -164.928404 
L 171.351923 -168.489145 
L 171.432066 -169.482961 
L 171.872849 -157.396307 
L 171.952991 -160.915873 
L 172.393775 -161.638117 
L 172.473917 -168.669353 
L 172.9147 -167.088148 
L 172.994843 -160.574255 
L 173.435626 -168.884864 
L 173.515768 -169.395994 
L 173.956552 -168.252404 
L 174.036694 -167.160213 
L 174.477477 -166.675648 
L 174.55762 -169.22843 
L 174.998403 -164.941576 
L 175.078546 -171.351476 
L 175.519329 -148.767245 
L 175.599471 -168.565264 
L 176.040255 -166.046325 
L 176.120397 -152.016697 
L 176.56118 -166.706598 
L 176.641323 -166.723525 
L 177.082106 -168.624146 
L 177.162248 -170.845584 
L 177.603032 -168.974735 
L 177.683174 -170.921421 
L 177.763316 -168.026397 
L 178.2041 -154.854694 
L 178.284242 -170.77328 
L 178.725025 -172.100226 
L 178.805168 -168.610427 
L 179.245951 -171.067157 
L 179.326094 -169.126533 
L 179.766877 -168.89472 
L 179.847019 -169.469041 
L 180.287803 -168.397695 
L 180.367945 -169.894022 
L 180.808728 -169.005479 
L 180.888871 -167.615808 
L 181.329654 -167.03009 
L 181.409796 -166.199116 
L 181.85058 -168.292759 
L 181.930722 -171.342104 
L 182.371505 -169.053356 
L 182.451648 -167.413816 
L 182.892431 -171.88528 
L 182.972573 -170.989757 
L 183.413357 -170.971039 
L 183.493499 -168.966106 
L 183.934282 -170.27136 
L 184.014425 -169.505043 
L 184.455208 -167.059618 
L 184.535351 -165.439507 
L 184.976134 -168.202123 
L 185.056276 -159.351456 
L 185.49706 -169.62174 
L 185.577202 -168.375097 
L 186.017985 -163.450881 
L 186.098128 -171.588521 
L 186.538911 -171.321525 
L 186.619053 -169.832556 
L 187.059837 -171.433174 
L 187.139979 -168.361074 
L 187.580762 -169.979839 
L 187.660905 -156.888328 
L 188.101688 -171.372007 
L 188.18183 -170.077585 
L 188.622614 -171.438948 
L 188.702756 -170.648758 
L 188.782899 -167.293727 
L 189.223682 -168.938814 
L 189.303824 -171.680791 
L 189.744608 -171.836762 
L 189.82475 -167.521107 
L 190.265533 -171.593824 
L 190.345676 -169.179777 
L 190.786459 -170.510527 
L 190.866601 -158.670729 
L 191.307385 -150.668406 
L 191.387527 -167.495508 
L 191.82831 -168.520312 
L 191.908453 -171.637088 
L 192.349236 -152.99935 
L 192.429378 -172.711744 
L 192.870162 -168.476055 
L 192.950304 -169.59969 
L 193.391087 -171.398686 
L 193.47123 -172.707674 
L 193.912013 -167.586833 
L 193.992156 -172.071186 
L 194.432939 -170.055524 
L 194.513081 -171.663973 
L 194.953865 -173.156724 
L 195.034007 -169.360431 
L 195.47479 -170.079837 
L 195.554933 -171.908578 
L 195.995716 -173.029553 
L 196.075858 -168.334823 
L 196.516642 -172.784596 
L 196.596784 -172.947801 
L 197.037567 -172.172204 
L 197.11771 -173.824047 
L 197.558493 -169.598089 
L 197.638635 -172.060609 
L 198.079419 -168.896695 
L 198.159561 -82.051066 
L 198.600344 -172.04804 
L 198.680487 -172.087603 
L 199.12127 -172.893374 
L 199.201413 -170.413694 
L 199.281555 -174.089617 
L 199.722338 -172.76285 
L 199.802481 -170.057342 
L 200.243264 -156.297424 
L 200.323406 -137.784619 
L 200.76419 -172.112486 
L 200.844332 -172.506599 
L 201.285115 -170.613901 
L 201.365258 -172.915093 
L 201.806041 -172.022973 
L 201.886183 -173.732836 
L 202.326967 -173.013338 
L 202.407109 -172.576558 
L 202.847892 -172.407236 
L 202.928035 -172.747209 
L 203.368818 -169.723496 
L 203.448961 -172.497563 
L 203.889744 -164.86296 
L 203.969886 -170.727406 
L 204.41067 -173.460168 
L 204.490812 -167.814718 
L 204.931595 -173.022553 
L 205.011738 -171.215975 
L 205.452521 -171.668445 
L 205.532663 -169.455148 
L 205.973447 -173.997369 
L 206.053589 -172.876865 
L 206.494372 -172.406606 
L 206.574515 -172.719548 
L 207.015298 -174.786827 
L 207.09544 -170.918588 
L 207.536224 -175.473014 
L 207.616366 -172.762123 
L 208.057149 -172.458222 
L 208.137292 -171.82688 
L 208.578075 -171.897566 
L 208.658218 -172.747274 
L 209.099001 -175.413003 
L 209.179143 -173.398756 
L 209.619927 -174.677793 
L 209.700069 -172.631913 
L 210.140852 -172.857741 
L 210.220995 -172.48075 
L 210.301137 -167.7151 
L 210.74192 -174.030007 
L 210.822063 -171.183707 
L 211.262846 -172.136473 
L 211.342988 -169.947185 
L 211.783772 -172.569183 
L 211.863914 -174.485797 
L 212.304697 -169.047239 
L 212.38484 -173.239333 
L 212.825623 -174.587504 
L 212.905766 -171.867137 
L 213.346549 -172.707115 
L 213.426691 -172.481928 
L 213.867475 -171.935935 
L 213.947617 -172.687724 
L 214.3884 -170.769628 
L 214.468543 -169.462317 
L 214.909326 -173.165103 
L 214.989468 -174.896674 
L 215.430252 -173.195923 
L 215.510394 -172.92427 
L 215.951177 -173.944271 
L 216.03132 -169.60808 
L 216.472103 -173.129529 
L 216.552245 -171.684085 
L 216.993029 -168.442619 
L 217.073171 -174.527075 
L 217.513954 -170.323769 
L 217.594097 -171.774987 
L 218.03488 -164.844731 
L 218.115023 -169.702678 
L 218.555806 -173.69831 
L 218.635948 -171.784712 
L 219.076732 -174.889131 
L 219.156874 -173.85725 
L 219.597657 -169.365977 
L 219.6778 -174.543046 
L 220.118583 -172.083554 
L 220.198725 -173.143743 
L 220.639509 -175.484275 
L 220.719651 -172.948029 
L 221.160434 -174.728503 
L 221.240577 -175.762989 
L 221.320719 -173.825567 
L 221.761502 -168.824874 
L 221.841645 -174.401191 
L 222.282428 -167.140529 
L 222.362571 -87.631455 
L 222.803354 -173.730367 
L 222.883496 -173.917478 
L 223.32428 -174.192008 
L 223.404422 -173.997195 
L 223.845205 -176.581361 
L 223.925348 -171.651523 
L 224.366131 -172.477353 
L 224.446273 -173.09141 
L 224.887057 -173.687152 
L 224.967199 -72.737204 
L 225.407982 -172.862305 
L 225.488125 -172.28921 
L 225.928908 -175.39359 
L 226.00905 -171.59346 
L 226.449834 -175.071363 
L 226.529976 -172.622926 
L 226.970759 -171.999974 
L 227.050902 -174.358149 
L 227.491685 -163.551731 
L 227.571828 -176.262222 
L 228.012611 -173.979986 
L 228.092753 -175.356844 
L 228.533537 -175.487694 
L 228.613679 -172.780602 
L 229.054462 -173.957877 
L 229.134605 -172.90273 
L 229.575388 -172.76317 
L 229.65553 -160.082788 
L 230.096314 -175.040722 
L 230.176456 -156.231834 
L 230.617239 -174.648916 
L 230.697382 -136.359204 
L 231.138165 -174.860883 
L 231.218307 -171.598876 
L 231.659091 -174.575283 
L 231.739233 -154.355965 
L 232.180016 -174.198504 
L 232.260159 -175.435405 
L 232.340301 -170.85513 
L 232.781085 -173.329117 
L 232.861227 -172.41733 
L 233.30201 -175.236767 
L 233.382153 -172.038228 
L 233.822936 -174.649231 
L 233.903078 -174.664112 
L 234.343862 -174.207268 
L 234.424004 -174.062536 
L 234.864787 -171.113872 
L 234.94493 -152.9767 
L 235.385713 -172.77245 
L 235.465855 -173.788956 
L 235.906639 -171.154694 
L 235.986781 -154.192222 
L 236.427564 -175.063353 
L 236.507707 -176.565759 
L 236.94849 -174.26163 
L 237.028633 -172.627007 
L 237.469416 -173.5742 
L 237.549558 -172.248394 
L 237.990342 -175.309081 
L 238.070484 -173.663848 
L 238.511267 -175.077333 
L 238.59141 -176.612349 
L 239.032193 -169.843866 
L 239.112335 -172.213102 
L 239.553119 -175.863789 
L 239.633261 -163.852614 
L 240.074044 -175.125177 
L 240.154187 -173.814572 
L 240.59497 -175.168273 
L 240.675112 -175.237689 
L 241.115896 -168.843006 
L 241.196038 -170.177256 
L 241.636821 -172.314136 
L 241.716964 -174.584438 
L 242.157747 -175.874578 
L 242.23789 -175.307383 
L 242.678673 -173.965181 
L 242.758815 -174.673397 
L 243.199599 -173.261915 
L 243.279741 -171.162677 
L 243.359883 -175.861836 
L 243.800667 -174.564434 
L 243.880809 -168.864301 
L 244.321592 -160.099459 
L 244.401735 -176.784797 
L 244.842518 -173.594236 
L 244.92266 -173.238818 
L 245.363444 -174.394966 
L 245.443586 -172.781833 
L 245.884369 -172.638317 
L 245.964512 -175.899146 
L 246.405295 -173.800158 
L 246.485438 -173.286554 
L 246.926221 -176.451011 
L 247.006363 -171.044977 
L 247.447147 -174.695849 
L 247.527289 -173.41729 
L 247.968072 -175.329101 
L 248.048215 -177.118356 
L 248.488998 -171.444592 
L 248.56914 -175.347211 
L 249.009924 -169.693929 
L 249.090066 -172.206676 
L 249.530849 -175.98569 
L 249.610992 -175.639172 
L 250.051775 -177.426847 
L 250.131917 -174.56222 
L 250.572701 -173.419455 
L 250.652843 -173.490103 
L 251.093626 -178.995386 
L 251.173769 -174.666076 
L 251.614552 -174.601376 
L 251.694695 -176.093519 
L 252.135478 -172.384046 
L 252.21562 -177.567764 
L 252.656403 -177.252478 
L 252.736546 -176.04765 
L 253.177329 -173.00237 
L 253.257472 -173.81557 
L 253.698255 -176.343019 
L 253.778397 -175.735257 
L 254.219181 -174.347773 
L 254.299323 -175.086244 
L 254.379465 -174.495973 
L 254.820249 -150.40372 
L 254.900391 -173.997032 
L 255.341174 -168.934619 
L 255.421317 -173.888661 
L 255.8621 -170.184257 
L 255.942243 -172.410905 
L 256.383026 -172.678867 
L 256.463168 -174.41249 
L 256.903952 -174.446989 
L 256.984094 -175.462909 
L 257.424877 -174.787234 
L 257.50502 -172.967328 
L 257.945803 -175.119728 
L 258.025945 -175.958463 
L 258.466729 -175.067005 
L 258.546871 -177.091519 
L 258.987654 -171.857434 
L 259.067797 -174.989112 
L 259.50858 -177.755413 
L 259.588722 -174.883123 
L 260.029506 -105.490091 
L 260.109648 -174.530494 
L 260.550431 -176.165709 
L 260.630574 -176.02712 
L 261.071357 -175.27176 
L 261.1515 -174.382288 
L 261.592283 -174.552907 
L 261.672425 -176.555952 
L 262.113208 -175.107111 
L 262.193351 -175.372099 
L 262.634134 -173.79942 
L 262.714277 -174.429346 
L 263.15506 -174.892967 
L 263.235202 -174.166251 
L 263.675986 -176.733062 
L 263.756128 -166.422306 
L 264.196911 -172.963523 
L 264.277054 -175.779687 
L 264.717837 -175.835694 
L 264.797979 -175.31701 
L 264.878122 -176.886852 
L 265.318905 -172.951475 
L 265.399048 -174.525512 
L 265.839831 -173.879316 
L 265.919973 -171.531587 
L 266.360757 -176.459298 
L 266.440899 -169.879565 
L 266.881682 -177.403549 
L 266.961825 -176.393924 
L 267.402608 -173.445662 
L 267.48275 -175.734307 
L 267.923534 -171.29172 
L 268.003676 -175.082326 
L 268.444459 -74.599848 
L 268.524602 -177.944299 
L 268.965385 -176.001537 
L 269.045527 -172.435093 
L 269.486311 -175.095703 
L 269.566453 -173.85897 
L 270.007236 -174.716645 
L 270.087379 -174.253609 
L 270.528162 -177.25765 
L 270.608305 -176.051883 
L 271.049088 -173.355563 
L 271.12923 -141.784225 
L 271.570013 -174.471329 
L 271.650156 -175.512631 
L 272.090939 -177.283032 
L 272.171082 -174.597734 
L 272.611865 -173.992262 
L 272.692007 -172.257967 
L 273.132791 -176.287116 
L 273.212933 -177.144058 
L 273.653716 -160.054627 
L 273.733859 -70.825233 
L 274.174642 -176.92859 
L 274.254784 -172.832098 
L 274.695568 -176.567886 
L 274.77571 -174.461767 
L 275.216493 -176.14088 
L 275.296636 -172.474721 
L 275.737419 -175.598942 
L 275.817561 -173.10475 
L 275.897704 -175.314302 
L 276.338487 -178.217759 
L 276.41863 -173.275824 
L 276.859413 -174.65602 
L 276.939555 -177.12832 
L 277.380339 -178.015002 
L 277.460481 -175.887185 
L 277.901264 -111.556923 
L 277.981407 -175.199049 
L 278.42219 -176.871634 
L 278.502332 -176.832663 
L 278.943116 -176.547166 
L 279.023258 -171.093814 
L 279.464041 -177.826875 
L 279.544184 -175.447502 
L 279.984967 -176.38593 
L 280.06511 -72.659201 
L 280.505893 -171.828584 
L 280.586035 -174.567452 
L 281.026818 -168.968505 
L 281.106961 -175.001876 
L 281.547744 -175.72755 
L 281.627887 -176.468485 
L 282.06867 -176.506572 
L 282.148812 -173.956639 
L 282.589596 -176.271068 
L 282.669738 -174.064218 
L 283.110521 -174.472555 
L 283.190664 -173.846667 
L 283.631447 -178.068707 
L 283.711589 -176.240509 
L 284.152373 -176.941984 
L 284.232515 -171.329475 
L 284.673298 -173.894723 
L 284.753441 -177.754512 
L 285.194224 -164.534557 
L 285.274366 -175.107974 
L 285.71515 -178.345196 
L 285.795292 -174.733023 
L 286.236075 -175.63184 
L 286.316218 -167.90817 
L 286.757001 -170.756956 
L 286.837144 -174.06951 
L 286.917286 -176.156689 
L 287.358069 -166.921822 
L 287.438212 -176.99239 
L 287.878995 -179.399235 
L 287.959137 -84.830718 
L 288.399921 -172.015023 
L 288.480063 -177.633979 
L 288.920846 -177.290445 
L 289.000989 -177.481632 
L 289.441772 -175.940011 
L 289.521914 -174.562784 
L 289.962698 -176.746032 
L 290.04284 -172.667829 
L 290.483623 -172.604881 
L 290.563766 -176.868329 
L 291.004549 -175.160094 
L 291.084692 -178.49199 
L 291.525475 -175.287775 
L 291.605617 -176.156906 
L 292.046401 -169.17854 
L 292.126543 -171.49171 
L 292.567326 -171.342587 
L 292.647469 -174.721784 
L 293.088252 -175.459463 
L 293.168394 -173.835151 
L 293.609178 -175.713315 
L 293.68932 -173.220084 
L 294.130103 -175.23331 
L 294.210246 -174.452101 
L 294.651029 -175.056417 
L 294.731171 -176.810993 
L 295.171955 -176.337315 
L 295.252097 -174.114874 
L 295.69288 -175.705691 
L 295.773023 -175.807604 
L 296.213806 -175.518736 
L 296.293949 -174.527124 
L 296.734732 -175.714895 
L 296.814874 -175.8577 
L 297.255658 -177.321493 
L 297.3358 -172.748023 
L 297.776583 -176.855033 
L 297.856726 -177.870118 
L 297.936868 -173.910526 
L 298.377651 -173.122697 
L 298.457794 -169.926584 
L 298.898577 -172.655548 
L 298.978719 -177.548162 
L 299.419503 -175.543456 
L 299.499645 -168.252941 
L 299.940428 -74.353579 
L 300.020571 -175.308202 
L 300.461354 -176.561016 
L 300.541497 -71.159225 
L 300.98228 -173.578666 
L 301.062422 -178.750021 
L 301.503206 -176.25914 
L 301.583348 -176.852423 
L 302.024131 -175.573457 
L 302.104274 -175.46298 
L 302.545057 -174.738988 
L 302.625199 -174.930935 
L 303.065983 -175.374471 
L 303.146125 -176.591998 
L 303.586908 -174.985899 
L 303.667051 -176.690422 
L 304.107834 -173.997081 
L 304.187976 -174.042885 
L 304.62876 -175.421235 
L 304.708902 -72.121823 
L 305.149685 -177.1254 
L 305.229828 -177.735045 
L 305.670611 -176.0174 
L 305.750754 -175.094341 
L 306.191537 -174.011815 
L 306.271679 -175.617638 
L 306.712463 -175.826745 
L 306.792605 -176.167255 
L 307.233388 -175.021994 
L 307.313531 -175.286999 
L 307.754314 -177.264076 
L 307.834456 -176.334037 
L 308.27524 -174.617472 
L 308.355382 -177.625708 
L 308.796165 -177.440241 
L 308.876308 -175.775151 
L 308.95645 -171.632464 
L 309.397233 -160.185662 
L 309.477376 -170.96056 
L 309.918159 -173.58926 
L 309.998302 -175.862704 
L 310.439085 -174.112242 
L 310.519227 -176.729133 
L 310.960011 -176.64273 
L 311.040153 -73.414969 
L 311.480936 -171.500219 
L 311.561079 -178.054136 
L 312.001862 -172.315536 
L 312.082004 -171.824845 
L 312.522788 -174.130325 
L 312.60293 -162.215288 
L 313.043713 -176.914111 
L 313.123856 -176.378957 
L 313.564639 -173.468754 
L 313.644781 -172.786256 
L 314.085565 -175.291416 
L 314.165707 -175.404678 
L 314.60649 -178.866739 
L 314.686633 -175.130121 
L 315.127416 -174.837992 
L 315.207559 -171.568756 
L 315.648342 -176.645704 
L 315.728484 -163.052465 
L 316.169268 -175.435964 
L 316.24941 -177.153533 
L 316.690193 -176.937876 
L 316.770336 -177.538556 
L 317.211119 -173.913755 
L 317.291261 -177.007493 
L 317.732045 -176.760267 
L 317.812187 -174.554535 
L 318.25297 -177.652805 
L 318.333113 -179.009062 
L 318.773896 -176.757353 
L 318.854038 -176.924428 
L 319.294822 -177.984328 
L 319.374964 -176.686851 
L 319.815747 -176.838182 
L 319.89589 -177.597341 
L 319.976032 -176.466141 
L 320.416816 -175.902001 
L 320.496958 -177.52704 
L 320.937741 -175.767178 
L 321.017884 -176.396887 
L 321.458667 -157.535612 
L 321.538809 -176.177583 
L 321.979593 -173.120553 
L 322.059735 -174.442642 
L 322.500518 -177.366005 
L 322.580661 -73.311602 
L 323.021444 -175.201833 
L 323.101586 -175.993266 
L 323.54237 -178.00742 
L 323.622512 -175.889573 
L 324.063295 -177.980269 
L 324.063295 -310.259538 
L 324.063295 -310.259538 
L 323.622512 -287.05106 
L 323.54237 -277.203535 
L 323.101586 -316.836172 
L 323.021444 -312.429099 
L 322.580661 -309.136804 
L 322.500518 -318.827386 
L 322.059735 -311.788091 
L 321.979593 -317.545663 
L 321.538809 -313.335334 
L 321.458667 -263.444453 
L 321.017884 -315.108861 
L 320.937741 -315.801464 
L 320.496958 -309.961 
L 320.416816 -312.968118 
L 319.976032 -265.229697 
L 319.89589 -311.483225 
L 319.815747 -313.331373 
L 319.374964 -312.200694 
L 319.294822 -316.549991 
L 318.854038 -293.708599 
L 318.773896 -313.075556 
L 318.333113 -315.901363 
L 318.25297 -311.522044 
L 317.812187 -298.327466 
L 317.732045 -310.990987 
L 317.291261 -318.55137 
L 317.211119 -311.215951 
L 316.770336 -312.837143 
L 316.690193 -295.898115 
L 316.24941 -313.163055 
L 316.169268 -309.710599 
L 315.728484 -191.277954 
L 315.648342 -315.251108 
L 315.207559 -298.511451 
L 315.127416 -306.914634 
L 314.686633 -308.352008 
L 314.60649 -317.228814 
L 314.165707 -309.216955 
L 314.085565 -317.621066 
L 313.644781 -320.964331 
L 313.564639 -323.43142 
L 313.123856 -311.439744 
L 313.043713 -259.649821 
L 312.60293 -273.549586 
L 312.522788 -312.054154 
L 312.082004 -290.719016 
L 312.001862 -318.492812 
L 311.561079 -301.058025 
L 311.480936 -304.934567 
L 311.040153 -311.944686 
L 310.960011 -253.141577 
L 310.519227 -317.354883 
L 310.439085 -268.876195 
L 309.998302 -318.217567 
L 309.918159 -305.983543 
L 309.477376 -309.195491 
L 309.397233 -261.304849 
L 308.95645 -316.631781 
L 308.876308 -313.917584 
L 308.796165 -301.266399 
L 308.355382 -301.362826 
L 308.27524 -264.102301 
L 307.834456 -303.548044 
L 307.754314 -309.621054 
L 307.313531 -309.055497 
L 307.233388 -312.514042 
L 306.792605 -309.389251 
L 306.712463 -311.079474 
L 306.271679 -299.813504 
L 306.191537 -316.71635 
L 305.750754 -312.415987 
L 305.670611 -303.022136 
L 305.229828 -255.710157 
L 305.149685 -307.159971 
L 304.708902 -304.790361 
L 304.62876 -312.940331 
L 304.187976 -248.360265 
L 304.107834 -314.958344 
L 303.667051 -310.283997 
L 303.586908 -315.940725 
L 303.146125 -307.187432 
L 303.065983 -312.453428 
L 302.625199 -309.494914 
L 302.545057 -274.550821 
L 302.104274 -317.012598 
L 302.024131 -317.656732 
L 301.583348 -302.890375 
L 301.503206 -309.384562 
L 301.062422 -236.354028 
L 300.98228 -311.316806 
L 300.541497 -228.480996 
L 300.461354 -305.607496 
L 300.020571 -316.3252 
L 299.940428 -300.442534 
L 299.499645 -293.018922 
L 299.419503 -299.11713 
L 298.978719 -306.372386 
L 298.898577 -307.520703 
L 298.457794 -308.487384 
L 298.377651 -305.92695 
L 297.936868 -317.544404 
L 297.856726 -301.006913 
L 297.776583 -229.802494 
L 297.3358 -303.888033 
L 297.255658 -299.233772 
L 296.814874 -312.04749 
L 296.734732 -310.326491 
L 296.293949 -313.917796 
L 296.213806 -308.253384 
L 295.773023 -242.886285 
L 295.69288 -312.331028 
L 295.252097 -302.704083 
L 295.171955 -305.334986 
L 294.731171 -306.446768 
L 294.651029 -298.587407 
L 294.210246 -305.693471 
L 294.130103 -305.868469 
L 293.68932 -306.151692 
L 293.609178 -292.884664 
L 293.168394 -294.679253 
L 293.088252 -297.811919 
L 292.647469 -303.623544 
L 292.567326 -301.905383 
L 292.126543 -304.580445 
L 292.046401 -199.726783 
L 291.605617 -311.409841 
L 291.525475 -204.829416 
L 291.084692 -316.335826 
L 291.004549 -306.007416 
L 290.563766 -309.813787 
L 290.483623 -308.076719 
L 290.04284 -306.76689 
L 289.962698 -260.666956 
L 289.521914 -306.236288 
L 289.441772 -301.338828 
L 289.000989 -304.92132 
L 288.920846 -300.687275 
L 288.480063 -202.361214 
L 288.399921 -311.206096 
L 287.959137 -311.361579 
L 287.878995 -313.976956 
L 287.438212 -301.963376 
L 287.358069 -295.898007 
L 286.917286 -309.814808 
L 286.837144 -260.856461 
L 286.757001 -299.403061 
L 286.316218 -257.623944 
L 286.236075 -207.073419 
L 285.795292 -308.224132 
L 285.71515 -295.765534 
L 285.274366 -276.772215 
L 285.194224 -256.572456 
L 284.753441 -291.111354 
L 284.673298 -303.47816 
L 284.232515 -301.839901 
L 284.152373 -301.655628 
L 283.711589 -314.726324 
L 283.631447 -291.066679 
L 283.190664 -296.652737 
L 283.110521 -298.599862 
L 282.669738 -314.380028 
L 282.589596 -295.941396 
L 282.148812 -307.332256 
L 282.06867 -305.818888 
L 281.627887 -240.719508 
L 281.547744 -298.893761 
L 281.106961 -304.210152 
L 281.026818 -297.264011 
L 280.586035 -309.460768 
L 280.505893 -309.947649 
L 280.06511 -192.909739 
L 279.984967 -308.371122 
L 279.544184 -293.17688 
L 279.464041 -310.045823 
L 279.023258 -297.265661 
L 278.943116 -305.072559 
L 278.502332 -307.426925 
L 278.42219 -308.887163 
L 277.981407 -291.204791 
L 277.901264 -304.38229 
L 277.460481 -294.950852 
L 277.380339 -303.023385 
L 276.939555 -301.72728 
L 276.859413 -311.409478 
L 276.41863 -300.444201 
L 276.338487 -251.085207 
L 275.897704 -292.700391 
L 275.817561 -313.697037 
L 275.737419 -303.033175 
L 275.296636 -305.691311 
L 275.216493 -308.549485 
L 274.77571 -301.108702 
L 274.695568 -304.948851 
L 274.254784 -309.26716 
L 274.174642 -300.263634 
L 273.733859 -298.264296 
L 273.653716 -304.700474 
L 273.212933 -303.406741 
L 273.132791 -298.390679 
L 272.692007 -294.452541 
L 272.611865 -298.215746 
L 272.171082 -233.281455 
L 272.090939 -302.909082 
L 271.650156 -302.039489 
L 271.570013 -308.612883 
L 271.12923 -207.13095 
L 271.049088 -297.02543 
L 270.608305 -304.767519 
L 270.528162 -290.389729 
L 270.087379 -299.706923 
L 270.007236 -299.342626 
L 269.566453 -298.784136 
L 269.486311 -212.387525 
L 269.045527 -216.486959 
L 268.965385 -249.818767 
L 268.524602 -295.586552 
L 268.444459 -298.954429 
L 268.003676 -296.578588 
L 267.923534 -288.534515 
L 267.48275 -300.291898 
L 267.402608 -301.672788 
L 266.961825 -305.901617 
L 266.881682 -308.069751 
L 266.440899 -230.44011 
L 266.360757 -195.247444 
L 265.919973 -294.741419 
L 265.839831 -291.174926 
L 265.399048 -304.944297 
L 265.318905 -233.217026 
L 264.878122 -298.375761 
L 264.797979 -297.002311 
L 264.717837 -293.569321 
L 264.277054 -293.122681 
L 264.196911 -293.7135 
L 263.756128 -190.978667 
L 263.675986 -278.677324 
L 263.235202 -305.035834 
L 263.15506 -299.235536 
L 262.714277 -253.086787 
L 262.634134 -303.04061 
L 262.193351 -296.177876 
L 262.113208 -286.126563 
L 261.672425 -299.020719 
L 261.592283 -306.971498 
L 261.1515 -293.049558 
L 261.071357 -282.689015 
L 260.630574 -289.52031 
L 260.550431 -297.295943 
L 260.109648 -296.843843 
L 260.029506 -303.337368 
L 259.588722 -302.560713 
L 259.50858 -291.097646 
L 259.067797 -238.599263 
L 258.987654 -296.853101 
L 258.546871 -299.360096 
L 258.466729 -305.539936 
L 258.025945 -282.605412 
L 257.945803 -299.204776 
L 257.50502 -309.095005 
L 257.424877 -298.549755 
L 256.984094 -294.029182 
L 256.903952 -299.295764 
L 256.463168 -304.703258 
L 256.383026 -300.625939 
L 255.942243 -293.577082 
L 255.8621 -301.44295 
L 255.421317 -291.194469 
L 255.341174 -253.673568 
L 254.900391 -306.830977 
L 254.820249 -303.468213 
L 254.379465 -295.880858 
L 254.299323 -298.331536 
L 254.219181 -213.73753 
L 253.778397 -290.647429 
L 253.698255 -289.390513 
L 253.257472 -298.345315 
L 253.177329 -211.051109 
L 252.736546 -304.759265 
L 252.656403 -295.710939 
L 252.21562 -297.945195 
L 252.135478 -296.498112 
L 251.694695 -291.481708 
L 251.614552 -290.050314 
L 251.173769 -304.085749 
L 251.093626 -298.288023 
L 250.652843 -301.617802 
L 250.572701 -291.830668 
L 250.131917 -233.183965 
L 250.051775 -282.946861 
L 249.610992 -287.002814 
L 249.530849 -297.479451 
L 249.090066 -206.784693 
L 249.009924 -291.482381 
L 248.56914 -291.890745 
L 248.488998 -296.361726 
L 248.048215 -294.306691 
L 247.968072 -286.427543 
L 247.527289 -291.208714 
L 247.447147 -285.357684 
L 247.006363 -293.430928 
L 246.926221 -291.70264 
L 246.485438 -296.717318 
L 246.405295 -298.333018 
L 245.964512 -284.015977 
L 245.884369 -290.164905 
L 245.443586 -296.998637 
L 245.363444 -289.537996 
L 244.92266 -296.127394 
L 244.842518 -280.139712 
L 244.401735 -287.865476 
L 244.321592 -222.299968 
L 243.880809 -286.973932 
L 243.800667 -295.811224 
L 243.359883 -291.394274 
L 243.279741 -280.137074 
L 243.199599 -289.586953 
L 242.758815 -285.86673 
L 242.678673 -276.806079 
L 242.23789 -301.175758 
L 242.157747 -287.347927 
L 241.716964 -291.454161 
L 241.636821 -280.65668 
L 241.196038 -285.845478 
L 241.115896 -218.630617 
L 240.675112 -297.951251 
L 240.59497 -277.851175 
L 240.154187 -276.116684 
L 240.074044 -297.52774 
L 239.633261 -226.807169 
L 239.553119 -285.507691 
L 239.112335 -230.658595 
L 239.032193 -294.940014 
L 238.59141 -290.638735 
L 238.511267 -244.046373 
L 238.070484 -283.370291 
L 237.990342 -238.056526 
L 237.549558 -278.166347 
L 237.469416 -282.710294 
L 237.028633 -281.691796 
L 236.94849 -200.29145 
L 236.507707 -280.527084 
L 236.427564 -282.362299 
L 235.986781 -197.145336 
L 235.906639 -191.00457 
L 235.465855 -233.891063 
L 235.385713 -216.670863 
L 234.94493 -297.274626 
L 234.864787 -281.565157 
L 234.424004 -292.383917 
L 234.343862 -287.007633 
L 233.903078 -187.372725 
L 233.822936 -279.78718 
L 233.382153 -281.944286 
L 233.30201 -271.703055 
L 232.861227 -288.407089 
L 232.781085 -271.658636 
L 232.340301 -284.289866 
L 232.260159 -283.359914 
L 232.180016 -279.172352 
L 231.739233 -240.06235 
L 231.659091 -287.628751 
L 231.218307 -277.227544 
L 231.138165 -278.921425 
L 230.697382 -266.680981 
L 230.617239 -291.181688 
L 230.176456 -242.445848 
L 230.096314 -272.793553 
L 229.65553 -286.404685 
L 229.575388 -274.94482 
L 229.134605 -285.179305 
L 229.054462 -287.10571 
L 228.613679 -290.529229 
L 228.533537 -296.424896 
L 228.092753 -278.714358 
L 228.012611 -283.178138 
L 227.571828 -280.002501 
L 227.491685 -270.253221 
L 227.050902 -283.148202 
L 226.970759 -281.516222 
L 226.529976 -276.266892 
L 226.449834 -279.142726 
L 226.00905 -285.798936 
L 225.928908 -270.27666 
L 225.488125 -280.828417 
L 225.407982 -274.637501 
L 224.967199 -267.794977 
L 224.887057 -237.354926 
L 224.446273 -288.766106 
L 224.366131 -280.815881 
L 223.925348 -273.645937 
L 223.845205 -287.429673 
L 223.404422 -279.233525 
L 223.32428 -271.437975 
L 222.883496 -278.375785 
L 222.803354 -190.50455 
L 222.362571 -276.907873 
L 222.282428 -289.205062 
L 221.841645 -269.349558 
L 221.761502 -281.540492 
L 221.320719 -244.630648 
L 221.240577 -284.192191 
L 221.160434 -277.364798 
L 220.719651 -269.94435 
L 220.639509 -278.893546 
L 220.198725 -283.757197 
L 220.118583 -274.399994 
L 219.6778 -274.856789 
L 219.597657 -274.149827 
L 219.156874 -279.325577 
L 219.076732 -275.207312 
L 218.635948 -283.739668 
L 218.555806 -274.926032 
L 218.115023 -276.763868 
L 218.03488 -278.903895 
L 217.594097 -272.870399 
L 217.513954 -265.664469 
L 217.073171 -266.289869 
L 216.993029 -235.28209 
L 216.552245 -241.857997 
L 216.472103 -199.590007 
L 216.03132 -275.945474 
L 215.951177 -278.006615 
L 215.510394 -275.446533 
L 215.430252 -279.765478 
L 214.989468 -276.074055 
L 214.909326 -282.179931 
L 214.468543 -280.18977 
L 214.3884 -276.636166 
L 213.947617 -208.745847 
L 213.867475 -227.946412 
L 213.426691 -277.82169 
L 213.346549 -277.015365 
L 212.905766 -282.604126 
L 212.825623 -212.413179 
L 212.38484 -274.815267 
L 212.304697 -247.986004 
L 211.863914 -279.113437 
L 211.783772 -278.442152 
L 211.342988 -279.518995 
L 211.262846 -256.446496 
L 210.822063 -269.742998 
L 210.74192 -270.661466 
L 210.301137 -266.740314 
L 210.220995 -259.256853 
L 210.140852 -269.518408 
L 209.700069 -225.831598 
L 209.619927 -272.299275 
L 209.179143 -273.845183 
L 209.099001 -270.539017 
L 208.658218 -270.955592 
L 208.578075 -265.46741 
L 208.137292 -257.423748 
L 208.057149 -199.458527 
L 207.616366 -235.136951 
L 207.536224 -265.957672 
L 207.09544 -185.268104 
L 207.015298 -267.086495 
L 206.574515 -269.862245 
L 206.494372 -272.372528 
L 206.053589 -270.491536 
L 205.973447 -268.50582 
L 205.532663 -274.374683 
L 205.452521 -279.853498 
L 205.011738 -273.558834 
L 204.931595 -262.560273 
L 204.490812 -260.49618 
L 204.41067 -263.276939 
L 203.969886 -275.755014 
L 203.889744 -275.752311 
L 203.448961 -211.22932 
L 203.368818 -267.894313 
L 202.928035 -276.422739 
L 202.847892 -262.366079 
L 202.407109 -262.933514 
L 202.326967 -267.183839 
L 201.886183 -275.358236 
L 201.806041 -268.179723 
L 201.365258 -251.737292 
L 201.285115 -258.657405 
L 200.844332 -262.070922 
L 200.76419 -259.82776 
L 200.323406 -186.445276 
L 200.243264 -222.078172 
L 199.802481 -272.876711 
L 199.722338 -262.95857 
L 199.281555 -275.419735 
L 199.201413 -214.408702 
L 199.12127 -215.387838 
L 198.680487 -265.720383 
L 198.600344 -268.525384 
L 198.159561 -268.282917 
L 198.079419 -264.643214 
L 197.638635 -260.911594 
L 197.558493 -263.094017 
L 197.11771 -190.432588 
L 197.037567 -268.175588 
L 196.596784 -259.36396 
L 196.516642 -269.694909 
L 196.075858 -267.621666 
L 195.995716 -261.39142 
L 195.554933 -183.286083 
L 195.47479 -276.904574 
L 195.034007 -266.276486 
L 194.953865 -273.049126 
L 194.513081 -271.725122 
L 194.432939 -264.886527 
L 193.992156 -267.238847 
L 193.912013 -266.410201 
L 193.47123 -269.118455 
L 193.391087 -230.845332 
L 192.950304 -263.973318 
L 192.870162 -189.778816 
L 192.429378 -275.312639 
L 192.349236 -183.124967 
L 191.908453 -266.520982 
L 191.82831 -182.390012 
L 191.387527 -273.975143 
L 191.307385 -246.544717 
L 190.866601 -269.174028 
L 190.786459 -270.167594 
L 190.345676 -266.917472 
L 190.265533 -264.370855 
L 189.82475 -267.3379 
L 189.744608 -262.29358 
L 189.303824 -263.002952 
L 189.223682 -264.362948 
L 188.782899 -267.622247 
L 188.702756 -262.030084 
L 188.622614 -269.883508 
L 188.18183 -265.206128 
L 188.101688 -258.982177 
L 187.660905 -194.259104 
L 187.580762 -267.991011 
L 187.139979 -268.431844 
L 187.059837 -270.716197 
L 186.619053 -209.473768 
L 186.538911 -271.751616 
L 186.098128 -265.185684 
L 186.017985 -265.475838 
L 185.577202 -261.512296 
L 185.49706 -214.87228 
L 185.056276 -256.08705 
L 184.976134 -231.708124 
L 184.535351 -248.163499 
L 184.455208 -264.811798 
L 184.014425 -267.047486 
L 183.934282 -262.533605 
L 183.493499 -253.255875 
L 183.413357 -248.505838 
L 182.972573 -256.632505 
L 182.892431 -204.859075 
L 182.451648 -203.623649 
L 182.371505 -182.809914 
L 181.930722 -258.397506 
L 181.85058 -262.6534 
L 181.409796 -248.501041 
L 181.329654 -269.995439 
L 180.888871 -255.217675 
L 180.808728 -263.191057 
L 180.367945 -257.3266 
L 180.287803 -257.530155 
L 179.847019 -188.161434 
L 179.766877 -189.214882 
L 179.326094 -268.209479 
L 179.245951 -231.19096 
L 178.805168 -228.624958 
L 178.725025 -252.887703 
L 178.284242 -247.185834 
L 178.2041 -259.577414 
L 177.763316 -205.039495 
L 177.683174 -259.488221 
L 177.603032 -228.831715 
L 177.162248 -255.018629 
L 177.082106 -252.617532 
L 176.641323 -257.147868 
L 176.56118 -251.732174 
L 176.120397 -257.980839 
L 176.040255 -263.527633 
L 175.599471 -257.148069 
L 175.519329 -181.684689 
L 175.078546 -253.568762 
L 174.998403 -236.90288 
L 174.55762 -177.530638 
L 174.477477 -256.287984 
L 174.036694 -228.558526 
L 173.956552 -249.346581 
L 173.515768 -266.480861 
L 173.435626 -237.956561 
L 172.994843 -179.045993 
L 172.9147 -248.35454 
L 172.473917 -245.445797 
L 172.393775 -243.798632 
L 171.952991 -180.141141 
L 171.872849 -248.071805 
L 171.432066 -243.154471 
L 171.351923 -250.231157 
L 170.91114 -250.731655 
L 170.830998 -246.266769 
L 170.390214 -253.432089 
L 170.310072 -253.372273 
L 169.869289 -255.427308 
L 169.789146 -251.997803 
L 169.348363 -257.342078 
L 169.26822 -204.299341 
L 168.827437 -248.3255 
L 168.747295 -248.704672 
L 168.306511 -241.510963 
L 168.226369 -235.891508 
L 167.785586 -254.459775 
L 167.705443 -247.555199 
L 167.26466 -245.121952 
L 167.184518 -254.144413 
L 166.743734 -249.00219 
L 166.663592 -179.847954 
L 166.58345 -242.610595 
L 166.142666 -247.295708 
L 166.062524 -249.210472 
L 165.621741 -255.236713 
L 165.541598 -196.148014 
L 165.100815 -243.183087 
L 165.020672 -258.356484 
L 164.579889 -221.034737 
L 164.499747 -186.779382 
L 164.058963 -244.359695 
L 163.978821 -217.253878 
L 163.538038 -183.637019 
L 163.457895 -196.736804 
L 163.017112 -233.001293 
L 162.93697 -244.180789 
L 162.496186 -253.786623 
L 162.416044 -248.500808 
L 161.975261 -180.034463 
L 161.895118 -247.890533 
L 161.454335 -250.224759 
L 161.374193 -230.352057 
L 160.933409 -175.121606 
L 160.853267 -187.728936 
L 160.412484 -243.792391 
L 160.332341 -241.879352 
L 159.891558 -250.383618 
L 159.811415 -243.915268 
L 159.370632 -234.044863 
L 159.29049 -246.737831 
L 158.849706 -241.772815 
L 158.769564 -253.300897 
L 158.328781 -241.205489 
L 158.248638 -245.212588 
L 157.807855 -250.712363 
L 157.727713 -233.834676 
L 157.286929 -174.521311 
L 157.206787 -226.944265 
L 156.766004 -204.306337 
L 156.685861 -182.882277 
L 156.245078 -230.932326 
L 156.164936 -247.381688 
L 155.724152 -243.12047 
L 155.64401 -242.49723 
L 155.563867 -234.986917 
L 155.123084 -231.839886 
L 155.042942 -242.781403 
L 154.602158 -241.645422 
L 154.522016 -233.723298 
L 154.081233 -238.974544 
L 154.00109 -237.498844 
L 153.560307 -243.219605 
L 153.480165 -177.240832 
L 153.039381 -229.624776 
L 152.959239 -240.384126 
L 152.518456 -242.952245 
L 152.438313 -248.831202 
L 151.99753 -243.162964 
L 151.917388 -228.489908 
L 151.476604 -231.756886 
L 151.396462 -236.304914 
L 150.955679 -245.118039 
L 150.875536 -192.992778 
L 150.434753 -234.484205 
L 150.35461 -225.7717 
L 149.913827 -230.566244 
L 149.833685 -242.122573 
L 149.392901 -226.483449 
L 149.312759 -171.118691 
L 148.871976 -242.544597 
L 148.791833 -236.016035 
L 148.35105 -229.177316 
L 148.270908 -237.116541 
L 147.830124 -227.316947 
L 147.749982 -237.209863 
L 147.309199 -230.12217 
L 147.229056 -224.97388 
L 146.788273 -171.12465 
L 146.708131 -239.786719 
L 146.267347 -242.906826 
L 146.187205 -194.227264 
L 145.746422 -228.627411 
L 145.666279 -228.240527 
L 145.225496 -226.259787 
L 145.145353 -238.381168 
L 144.70457 -234.529558 
L 144.624428 -223.747328 
L 144.544285 -232.641836 
L 144.103502 -225.2842 
L 144.02336 -228.212079 
L 143.582576 -234.765496 
L 143.502434 -225.10925 
L 143.061651 -168.662575 
L 142.981508 -223.237142 
L 142.540725 -229.878092 
L 142.460583 -235.124496 
L 142.019799 -229.387161 
L 141.939657 -235.402352 
L 141.498874 -236.074023 
L 141.418731 -215.61728 
L 140.977948 -216.000669 
L 140.897805 -224.218238 
L 140.457022 -173.660104 
L 140.37688 -208.745933 
L 139.936097 -233.03107 
L 139.855954 -211.090612 
L 139.415171 -216.796297 
L 139.335028 -212.889901 
L 138.894245 -216.029937 
L 138.814103 -216.625711 
L 138.373319 -229.451406 
L 138.293177 -204.695999 
L 137.852394 -215.452641 
L 137.772251 -223.812164 
L 137.331468 -183.390259 
L 137.251326 -214.974931 
L 136.810542 -235.671623 
L 136.7304 -224.566498 
L 136.289617 -166.706284 
L 136.209474 -222.651061 
L 135.768691 -221.2558 
L 135.688548 -165.609572 
L 135.247765 -194.370797 
L 135.167623 -215.477063 
L 134.72684 -220.219507 
L 134.646697 -200.060803 
L 134.205914 -199.829434 
L 134.125771 -211.865786 
L 133.684988 -204.045765 
L 133.604846 -216.4768 
L 133.524703 -188.17969 
L 133.08392 -203.827199 
L 133.003778 -217.293843 
L 132.562994 -186.764165 
L 132.482852 -218.595803 
L 132.042069 -215.024404 
L 131.961926 -166.086153 
L 131.521143 -205.976979 
L 131.441 -200.003483 
L 131.000217 -210.068885 
L 130.920075 -206.905383 
L 130.479292 -164.747745 
L 130.399149 -164.517772 
L 129.958366 -212.207778 
L 129.878223 -165.476204 
L 129.43744 -164.816245 
L 129.357298 -207.659614 
L 128.916514 -184.286368 
L 128.836372 -202.950481 
L 128.395589 -169.76295 
L 128.315446 -215.562375 
L 127.874663 -189.654413 
L 127.794521 -204.73846 
L 127.353737 -162.715759 
L 127.273595 -202.619413 
L 126.832812 -178.784152 
L 126.752669 -165.18833 
L 126.311886 -198.330307 
L 126.231743 -193.067713 
L 125.79096 -164.641567 
L 125.710818 -204.230201 
L 125.270035 -161.267617 
L 125.189892 -209.892215 
L 124.749109 -185.293035 
L 124.668966 -193.954319 
L 124.228183 -185.905367 
L 124.148041 -198.311627 
L 123.707257 -190.151275 
L 123.627115 -202.339153 
L 123.186332 -192.970777 
L 123.106189 -165.391168 
L 123.026047 -200.875431 
L 122.585264 -186.58953 
L 122.505121 -190.798269 
L 122.064338 -190.670035 
L 121.984195 -181.062958 
L 121.543412 -185.13619 
L 121.46327 -162.892933 
L 121.022487 -162.038428 
L 120.942344 -167.353305 
L 120.501561 -162.951707 
L 120.421418 -178.877664 
L 119.980635 -180.623529 
L 119.900493 -189.698209 
L 119.459709 -185.002588 
L 119.379567 -175.227888 
L 118.938784 -187.290018 
L 118.858641 -162.987346 
L 118.417858 -191.350437 
L 118.337716 -183.689747 
L 117.896932 -180.114131 
L 117.81679 -171.144518 
L 117.376007 -186.611493 
L 117.295864 -162.321325 
L 116.855081 -164.011358 
L 116.774939 -160.337313 
L 116.334155 -174.097757 
L 116.254013 -184.64062 
L 115.81323 -174.720096 
L 115.733087 -159.191992 
L 115.292304 -177.792023 
L 115.212161 -176.6245 
L 114.771378 -182.035945 
L 114.691236 -176.327487 
L 114.250452 -158.777137 
L 114.17031 -166.87242 
L 113.729527 -155.78248 
L 113.649384 -169.019822 
L 113.208601 -181.885862 
L 113.128459 -166.035829 
L 112.687675 -172.657968 
L 112.607533 -155.655298 
L 112.16675 -155.047327 
L 112.086607 -156.173376 
L 112.006465 -177.073371 
L 111.565682 -174.485558 
L 111.485539 -154.659756 
L 111.044756 -152.3444 
L 110.964613 -153.828382 
L 110.52383 -155.762381 
L 110.443688 -161.892013 
L 110.002904 -170.463128 
L 109.922762 -152.453683 
L 109.481979 -155.359094 
L 109.401836 -150.661916 
L 108.961053 -170.621591 
L 108.880911 -168.691864 
L 108.440127 -168.984949 
L 108.359985 -159.646089 
L 107.919202 -163.884747 
L 107.839059 -164.565296 
L 107.398276 -163.396655 
L 107.318134 -151.674634 
L 106.87735 -167.346895 
L 106.797208 -162.070789 
L 106.356425 -152.7069 
L 106.276282 -157.114724 
L 105.835499 -160.504947 
L 105.755356 -148.992799 
L 105.314573 -160.411744 
L 105.234431 -151.575076 
L 104.793647 -167.756741 
L 104.713505 -148.765994 
L 104.272722 -145.837459 
L 104.192579 -149.144325 
L 103.751796 -153.973059 
L 103.671654 -148.262791 
L 103.23087 -144.308884 
L 103.150728 -153.886379 
L 102.709945 -151.083261 
L 102.629802 -149.619181 
L 102.189019 -154.896802 
L 102.108877 -142.710005 
L 101.668093 -146.304308 
L 101.587951 -144.33882 
L 101.147168 -146.696499 
L 101.067025 -144.090096 
L 100.986883 -146.031376 
L 100.546099 -143.715797 
L 100.465957 -143.925406 
L 100.025174 -147.571464 
L 99.945031 -141.235481 
L 99.504248 -142.308957 
L 99.424106 -146.949255 
L 98.983322 -143.80833 
L 98.90318 -139.297745 
L 98.462397 -139.607477 
L 98.382254 -143.212032 
L 97.941471 -139.424565 
L 97.861329 -142.786752 
L 97.420545 -136.656232 
L 97.340403 -136.183449 
L 96.89962 -135.385531 
L 96.819477 -134.440641 
L 96.378694 -138.823665 
L 96.298551 -133.20919 
L 95.857768 -141.242627 
L 95.777626 -133.66683 
L 95.336842 -132.641747 
L 95.2567 -130.383358 
L 94.815917 -130.333176 
L 94.735774 -131.547928 
L 94.294991 -130.873708 
L 94.214849 -136.520118 
L 93.774065 -131.025729 
L 93.693923 -132.78974 
L 93.25314 -133.336312 
L 93.172997 -130.250584 
L 92.732214 -132.031911 
L 92.652072 -127.583705 
L 92.211288 -127.296983 
L 92.131146 -124.94575 
L 91.690363 -127.12764 
L 91.61022 -126.574826 
L 91.169437 -123.409528 
L 91.089294 -125.108547 
L 90.648511 -126.374917 
L 90.568369 -130.937151 
L 90.127585 -123.966462 
L 90.047443 -122.237004 
L 89.967301 -121.367738 
L 89.526517 -119.295345 
L 89.446375 -116.56183 
L 89.005592 -119.367459 
L 88.925449 -116.225305 
L 88.484666 -118.017172 
L 88.404524 -118.31123 
L 87.96374 -115.34835 
L 87.883598 -114.828839 
L 87.442815 -117.048958 
L 87.362672 -113.127479 
L 86.921889 -118.943318 
L 86.841746 -109.899265 
L 86.400963 -113.072353 
L 86.320821 -114.184405 
L 85.880037 -114.515887 
L 85.799895 -111.208924 
L 85.359112 -110.46564 
L 85.278969 -105.284274 
L 84.838186 -107.589094 
L 84.758044 -106.312765 
L 84.31726 -105.207922 
L 84.237118 -111.646886 
L 83.796335 -107.113127 
L 83.716192 -103.902173 
L 83.275409 -103.913559 
L 83.195267 -107.040827 
L 82.754483 -105.989326 
L 82.674341 -101.019777 
L 82.233558 -111.944302 
L 82.153415 -102.507684 
L 81.712632 -101.152663 
L 81.632489 -101.776072 
L 81.191706 -100.770292 
L 81.111564 -100.618349 
L 80.67078 -102.987121 
L 80.590638 -100.547215 
L 80.149855 -99.926919 
L 80.069712 -100.083647 
L 79.628929 -106.644624 
L 79.548787 -97.31633 
L 79.108003 -96.531006 
L 79.027861 -102.153766 
L 78.947719 -96.32929 
L 78.506935 -101.904517 
L 78.426793 -96.056613 
L 77.98601 -95.210249 
L 77.905867 -94.319908 
L 77.465084 -98.079784 
L 77.384941 -96.835045 
L 76.944158 -96.385894 
L 76.864016 -93.344048 
L 76.423232 -96.716199 
L 76.34309 -95.011508 
L 75.902307 -95.80199 
L 75.822164 -97.595602 
L 75.381381 -94.145739 
L 75.301239 -97.299581 
L 74.860455 -96.588544 
L 74.780313 -92.967478 
L 74.33953 -93.536443 
L 74.259387 -92.715878 
L 73.818604 -92.087463 
L 73.738462 -92.143924 
L 73.297678 -94.753629 
L 73.217536 -96.239854 
L 72.776753 -92.054595 
L 72.69661 -92.056603 
L 72.255827 -95.244328 
L 72.175684 -95.104669 
L 71.734901 -90.613687 
L 71.654759 -94.249645 
L 71.213975 -89.818807 
L 71.133833 -93.91678 
L 70.69305 -89.579538 
L 70.612907 -89.50043 
L 70.172124 -90.509109 
L 70.091982 -98.432767 
L 69.651198 -92.180282 
L 69.571056 -89.828806 
L 69.130273 -96.803733 
L 69.05013 -94.136321 
L 68.609347 -89.799557 
L 68.529205 -94.406117 
z
" style="stroke: #1f77b4; stroke-opacity: 0.1"/>
    </defs>
    <g clip-path="url(#pa60263bc3e)">
     <use xlink:href="#mcc5b903c29" x="0" y="360" style="fill: #1f77b4; fill-opacity: 0.1; stroke: #1f77b4; stroke-opacity: 0.1"/>
    </g>
   </g>
   <g id="matplotlib.axis_1">
    <g id="xtick_1">
     <g id="line2d_1">
      <path d="M 68.529205 304.879375 
L 68.529205 23.791875 
" clip-path="url(#pa60263bc3e)" style="fill: none; stroke: #b0b0b0; stroke-opacity: 0.15; stroke-width: 0.8; stroke-linecap: square"/>
     </g>
     <g id="line2d_2">
      <defs>
       <path id="m004b0f1143" d="M 0 0 
L 0 3.5 
" style="stroke: #000000; stroke-width: 0.8"/>
      </defs>
      <g>
       <use xlink:href="#m004b0f1143" x="68.529205" y="304.879375" style="stroke: #000000; stroke-width: 0.8"/>
      </g>
     </g>
     <g id="text_1">
      <text style="font-size: 14px; font-family: 'Latin Modern Math'; text-anchor: middle" x="68.529205" y="321.59625" transform="rotate(-0 68.529205 321.59625)">0</text>
     </g>
    </g>
    <g id="xtick_2">
     <g id="line2d_3">
      <path d="M 148.67162 304.879375 
L 148.67162 23.791875 
" clip-path="url(#pa60263bc3e)" style="fill: none; stroke: #b0b0b0; stroke-opacity: 0.15; stroke-width: 0.8; stroke-linecap: square"/>
     </g>
     <g id="line2d_4">
      <g>
       <use xlink:href="#m004b0f1143" x="148.67162" y="304.879375" style="stroke: #000000; stroke-width: 0.8"/>
      </g>
     </g>
     <g id="text_2">
      <text style="font-size: 14px; font-family: 'Latin Modern Math'; text-anchor: middle" x="148.67162" y="321.59625" transform="rotate(-0 148.67162 321.59625)">2000</text>
     </g>
    </g>
    <g id="xtick_3">
     <g id="line2d_5">
      <path d="M 228.814035 304.879375 
L 228.814035 23.791875 
" clip-path="url(#pa60263bc3e)" style="fill: none; stroke: #b0b0b0; stroke-opacity: 0.15; stroke-width: 0.8; stroke-linecap: square"/>
     </g>
     <g id="line2d_6">
      <g>
       <use xlink:href="#m004b0f1143" x="228.814035" y="304.879375" style="stroke: #000000; stroke-width: 0.8"/>
      </g>
     </g>
     <g id="text_3">
      <text style="font-size: 14px; font-family: 'Latin Modern Math'; text-anchor: middle" x="228.814035" y="321.59625" transform="rotate(-0 228.814035 321.59625)">4000</text>
     </g>
    </g>
    <g id="xtick_4">
     <g id="line2d_7">
      <path d="M 308.95645 304.879375 
L 308.95645 23.791875 
" clip-path="url(#pa60263bc3e)" style="fill: none; stroke: #b0b0b0; stroke-opacity: 0.15; stroke-width: 0.8; stroke-linecap: square"/>
     </g>
     <g id="line2d_8">
      <g>
       <use xlink:href="#m004b0f1143" x="308.95645" y="304.879375" style="stroke: #000000; stroke-width: 0.8"/>
      </g>
     </g>
     <g id="text_4">
      <text style="font-size: 14px; font-family: 'Latin Modern Math'; text-anchor: middle" x="308.95645" y="321.59625" transform="rotate(-0 308.95645 321.59625)">6000</text>
     </g>
    </g>
    <g id="text_5">
     <text style="font-size: 14px; font-family: 'Latin Modern Math'; text-anchor: middle" x="196.29625" y="338.03" transform="rotate(-0 196.29625 338.03)">t</text>
    </g>
   </g>
   <g id="matplotlib.axis_2">
    <g id="ytick_1">
     <g id="line2d_9">
      <path d="M 55.7525 256.092284 
L 336.84 256.092284 
" clip-path="url(#pa60263bc3e)" style="fill: none; stroke: #b0b0b0; stroke-opacity: 0.15; stroke-width: 0.8; stroke-linecap: square"/>
     </g>
     <g id="line2d_10">
      <defs>
       <path id="m2da3819516" d="M 0 0 
L -3.5 0 
" style="stroke: #000000; stroke-width: 0.8"/>
      </defs>
      <g>
       <use xlink:href="#m2da3819516" x="55.7525" y="256.092284" style="stroke: #000000; stroke-width: 0.8"/>
      </g>
     </g>
     <g id="text_6">
      <text style="font-size: 14px; font-family: 'Latin Modern Math'; text-anchor: end" x="48.7525" y="260.950721" transform="rotate(-0 48.7525 260.950721)">0</text>
     </g>
    </g>
    <g id="ytick_2">
     <g id="line2d_11">
      <path d="M 55.7525 201.822463 
L 336.84 201.822463 
" clip-path="url(#pa60263bc3e)" style="fill: none; stroke: #b0b0b0; stroke-opacity: 0.15; stroke-width: 0.8; stroke-linecap: square"/>
     </g>
     <g id="line2d_12">
      <g>
       <use xlink:href="#m2da3819516" x="55.7525" y="201.822463" style="stroke: #000000; stroke-width: 0.8"/>
      </g>
     </g>
     <g id="text_7">
      <text style="font-size: 14px; font-family: 'Latin Modern Math'; text-anchor: end" x="48.7525" y="206.6809" transform="rotate(-0 48.7525 206.6809)">1000</text>
     </g>
    </g>
    <g id="ytick_3">
     <g id="line2d_13">
      <path d="M 55.7525 147.552642 
L 336.84 147.552642 
" clip-path="url(#pa60263bc3e)" style="fill: none; stroke: #b0b0b0; stroke-opacity: 0.15; stroke-width: 0.8; stroke-linecap: square"/>
     </g>
     <g id="line2d_14">
      <g>
       <use xlink:href="#m2da3819516" x="55.7525" y="147.552642" style="stroke: #000000; stroke-width: 0.8"/>
      </g>
     </g>
     <g id="text_8">
      <text style="font-size: 14px; font-family: 'Latin Modern Math'; text-anchor: end" x="48.7525" y="152.41108" transform="rotate(-0 48.7525 152.41108)">2000</text>
     </g>
    </g>
    <g id="ytick_4">
     <g id="line2d_15">
      <path d="M 55.7525 93.282822 
L 336.84 93.282822 
" clip-path="url(#pa60263bc3e)" style="fill: none; stroke: #b0b0b0; stroke-opacity: 0.15; stroke-width: 0.8; stroke-linecap: square"/>
     </g>
     <g id="line2d_16">
      <g>
       <use xlink:href="#m2da3819516" x="55.7525" y="93.282822" style="stroke: #000000; stroke-width: 0.8"/>
      </g>
     </g>
     <g id="text_9">
      <text style="font-size: 14px; font-family: 'Latin Modern Math'; text-anchor: end" x="48.7525" y="98.141259" transform="rotate(-0 48.7525 98.141259)">3000</text>
     </g>
    </g>
    <g id="ytick_5">
     <g id="line2d_17">
      <path d="M 55.7525 39.013001 
L 336.84 39.013001 
" clip-path="url(#pa60263bc3e)" style="fill: none; stroke: #b0b0b0; stroke-opacity: 0.15; stroke-width: 0.8; stroke-linecap: square"/>
     </g>
     <g id="line2d_18">
      <g>
       <use xlink:href="#m2da3819516" x="55.7525" y="39.013001" style="stroke: #000000; stroke-width: 0.8"/>
      </g>
     </g>
     <g id="text_10">
      <text style="font-size: 14px; font-family: 'Latin Modern Math'; text-anchor: end" x="48.7525" y="43.871438" transform="rotate(-0 48.7525 43.871438)">4000</text>
     </g>
    </g>
    <g id="text_11">
     <text style="font-size: 14px; font-family: 'Latin Modern Math'; text-anchor: middle" x="14.035625" y="164.335625" transform="rotate(-90 14.035625 164.335625)">R</text>
    </g>
   </g>
   <g id="line2d_19">
    <path d="M 68.529205 274.942915 
L 68.609347 277.016517 
L 69.05013 274.469616 
L 69.130273 274.662504 
L 69.571056 273.99853 
L 69.651198 274.421277 
L 70.091982 272.467771 
L 70.172124 274.492897 
L 70.612907 274.795796 
L 70.69305 274.245478 
L 71.133833 273.766485 
L 71.213975 274.172664 
L 71.654759 272.022615 
L 71.734901 272.145491 
L 72.175684 272.523493 
L 72.255827 271.429623 
L 72.69661 272.728033 
L 72.776753 272.173353 
L 73.217536 270.028148 
L 73.297678 271.326926 
L 73.738462 271.882905 
L 73.818604 271.640197 
L 74.259387 271.9898 
L 74.33953 270.386398 
L 74.780313 271.769456 
L 74.860455 269.803932 
L 75.301239 270.245598 
L 75.381381 269.261294 
L 75.822164 268.738838 
L 75.902307 267.873011 
L 76.34309 268.845243 
L 76.423232 268.218061 
L 76.864016 267.861696 
L 76.944158 268.907273 
L 77.384941 268.433086 
L 77.465084 267.107772 
L 77.905867 267.381054 
L 78.426793 268.862694 
L 78.506935 264.687708 
L 78.947719 266.959784 
L 79.027861 265.556295 
L 79.108003 266.432101 
L 79.548787 266.804069 
L 79.628929 265.897582 
L 80.069712 264.655054 
L 80.149855 266.76135 
L 80.67078 262.937381 
L 81.111564 263.460919 
L 81.191706 264.678266 
L 81.632489 264.960564 
L 81.712632 262.811384 
L 82.153415 260.935227 
L 82.233558 264.396254 
L 82.674341 263.037692 
L 82.754483 261.498303 
L 83.195267 259.512578 
L 83.275409 260.782422 
L 83.716192 260.522538 
L 83.796335 258.5917 
L 84.237118 258.922783 
L 84.31726 257.704284 
L 84.758044 258.761782 
L 84.838186 257.791035 
L 85.278969 258.894462 
L 85.359112 257.129354 
L 85.799895 254.920568 
L 85.880037 253.840725 
L 86.320821 254.301241 
L 86.400963 254.968619 
L 86.841746 253.662816 
L 86.921889 252.594693 
L 87.362672 254.472085 
L 87.442815 253.116132 
L 87.883598 254.028202 
L 87.96374 250.531199 
L 88.404524 250.374478 
L 88.484666 250.92578 
L 89.005592 249.015389 
L 89.446375 253.237449 
L 89.526517 246.471788 
L 89.967301 248.472144 
L 90.127585 243.536785 
L 90.568369 242.853416 
L 90.648511 245.303709 
L 91.089294 242.836414 
L 91.169437 243.400369 
L 91.61022 240.835686 
L 91.690363 247.606053 
L 92.131146 241.747081 
L 92.211288 242.988201 
L 92.732214 238.890081 
L 93.172997 238.425013 
L 93.25314 245.339793 
L 93.774065 236.37988 
L 94.214849 236.644977 
L 94.294991 241.870793 
L 94.735774 235.910333 
L 94.815917 238.647386 
L 95.2567 236.354634 
L 95.336842 234.53731 
L 95.777626 238.430216 
L 95.857768 237.29322 
L 96.298551 234.210426 
L 96.378694 229.933579 
L 96.89962 234.542305 
L 97.340403 231.259937 
L 97.420545 235.335532 
L 97.861329 232.2392 
L 97.941471 229.406288 
L 98.382254 227.237349 
L 98.462397 228.226881 
L 98.90318 228.874515 
L 98.983322 226.197516 
L 99.424106 226.563679 
L 99.504248 224.38962 
L 99.945031 228.298498 
L 100.025174 224.178339 
L 100.465957 226.510667 
L 100.546099 228.986772 
L 100.986883 225.225941 
L 101.067025 229.174739 
L 101.147168 222.5997 
L 101.668093 227.675117 
L 102.108877 225.357953 
L 102.189019 221.494248 
L 102.629802 221.240473 
L 102.709945 221.897995 
L 103.150728 232.271194 
L 103.23087 225.351442 
L 103.671654 218.283477 
L 103.751796 222.044746 
L 104.192579 220.461521 
L 104.272722 220.492292 
L 104.713505 221.143075 
L 104.793647 216.022678 
L 105.234431 218.41412 
L 105.314573 215.822509 
L 105.755356 219.58898 
L 105.835499 216.232043 
L 106.276282 216.746645 
L 106.356425 218.958919 
L 106.87735 214.926533 
L 107.318134 216.440656 
L 107.398276 214.074986 
L 107.839059 212.253552 
L 107.919202 212.719042 
L 108.359985 213.840103 
L 108.440127 212.073291 
L 108.880911 211.801955 
L 108.961053 211.352752 
L 109.401836 216.424873 
L 109.481979 214.699909 
L 109.922762 216.557734 
L 110.002904 212.318011 
L 110.443688 212.544502 
L 110.52383 212.808011 
L 110.964613 215.281412 
L 111.044756 213.410769 
L 111.485539 214.845128 
L 111.565682 209.266088 
L 112.006465 209.630733 
L 112.086607 223.322653 
L 112.16675 214.621482 
L 112.607533 213.32506 
L 112.687675 208.461227 
L 113.128459 210.460999 
L 113.208601 207.603126 
L 113.649384 208.078792 
L 113.729527 209.712205 
L 114.17031 206.469047 
L 114.250452 211.514582 
L 114.691236 206.521359 
L 114.771378 206.579827 
L 115.292304 205.4367 
L 115.733087 209.548581 
L 115.81323 205.505884 
L 116.254013 211.394117 
L 116.334155 205.867438 
L 116.855081 208.787939 
L 117.295864 206.898762 
L 117.376007 203.809579 
L 117.896932 204.391246 
L 118.337716 203.858865 
L 118.417858 201.380634 
L 118.858641 209.058601 
L 118.938784 203.09944 
L 119.459709 203.605425 
L 119.900493 200.979138 
L 119.980635 203.491611 
L 120.421418 204.884224 
L 120.501561 207.050119 
L 120.942344 203.597798 
L 121.022487 207.380865 
L 121.543412 201.855819 
L 121.984195 202.282339 
L 122.064338 201.856161 
L 122.505121 201.091437 
L 122.585264 203.813275 
L 123.026047 199.493387 
L 123.106189 204.155073 
L 123.186332 202.870117 
L 123.627115 199.026833 
L 123.707257 202.312701 
L 124.148041 199.937179 
L 124.228183 200.050807 
L 124.668966 199.028209 
L 124.749109 200.447398 
L 125.189892 197.379023 
L 125.270035 205.022772 
L 125.710818 199.578634 
L 125.79096 209.209126 
L 126.311886 198.306178 
L 126.752669 203.791792 
L 126.832812 200.80373 
L 127.273595 197.748882 
L 127.353737 202.922227 
L 127.794521 196.845436 
L 127.874663 200.118976 
L 128.315446 194.95432 
L 128.395589 201.103744 
L 128.836372 197.228922 
L 128.916514 199.316329 
L 129.357298 194.849082 
L 129.43744 201.839693 
L 129.878223 203.221494 
L 129.958366 196.239419 
L 130.399149 200.750285 
L 130.479292 203.956979 
L 130.920075 195.832706 
L 131.000217 201.798186 
L 131.521143 196.660293 
L 131.961926 201.954297 
L 132.042069 195.878443 
L 132.482852 194.255936 
L 132.562994 197.547837 
L 133.003778 194.951427 
L 133.08392 197.824048 
L 133.524703 196.175454 
L 133.604846 193.376707 
L 134.205914 205.48044 
L 134.72684 192.478252 
L 135.247765 195.138541 
L 135.688548 198.745583 
L 135.768691 192.57835 
L 136.209474 193.252859 
L 136.289617 201.275657 
L 136.810542 190.39563 
L 137.331468 196.03494 
L 137.852394 192.402098 
L 138.293177 192.781991 
L 138.373319 190.658644 
L 138.814103 192.69055 
L 138.894245 192.636535 
L 139.335028 192.696739 
L 139.415171 190.769503 
L 139.855954 192.811448 
L 139.936097 190.623393 
L 140.457022 199.526302 
L 140.897805 198.044542 
L 140.977948 191.097594 
L 141.418731 191.428466 
L 141.498874 189.569939 
L 142.019799 189.605572 
L 142.460583 188.306481 
L 142.540725 188.907924 
L 142.981508 190.336205 
L 143.061651 196.236754 
L 143.582576 188.696978 
L 144.02336 189.788415 
L 144.103502 191.269856 
L 144.544285 190.279912 
L 144.624428 190.417815 
L 144.70457 188.524553 
L 145.225496 188.207251 
L 145.666279 187.395655 
L 145.746422 187.730674 
L 146.187205 190.798443 
L 146.267347 190.154149 
L 146.708131 185.466958 
L 146.788273 196.17457 
L 147.309199 186.490868 
L 147.749982 186.839166 
L 147.830124 188.176199 
L 148.270908 186.913551 
L 148.35105 187.881471 
L 148.791833 185.962451 
L 148.871976 186.067697 
L 149.312759 192.939906 
L 149.392901 187.053205 
L 149.833685 185.853283 
L 149.913827 186.983083 
L 150.35461 187.140134 
L 150.434753 186.314332 
L 150.875536 189.43505 
L 150.955679 185.452481 
L 151.396462 186.812968 
L 151.476604 186.61245 
L 151.917388 187.163964 
L 151.99753 184.822101 
L 152.438313 184.67264 
L 152.518456 185.315402 
L 152.959239 185.133968 
L 153.039381 186.421261 
L 153.480165 191.444766 
L 153.560307 183.866957 
L 154.081233 185.881545 
L 154.522016 183.976452 
L 154.602158 186.244731 
L 155.042942 184.083955 
L 155.123084 185.330148 
L 155.563867 186.139789 
L 155.724152 184.790848 
L 156.164936 182.053307 
L 156.245078 185.184018 
L 156.685861 191.207778 
L 156.766004 187.657874 
L 157.206787 186.246788 
L 157.286929 192.074118 
L 157.807855 182.425098 
L 158.248638 183.070259 
L 158.328781 184.424819 
L 158.769564 181.346343 
L 158.849706 183.116165 
L 159.29049 183.992392 
L 159.370632 183.826854 
L 159.811415 184.030063 
L 159.891558 185.14779 
L 160.332341 184.677641 
L 160.412484 186.353539 
L 160.933409 191.625465 
L 161.374193 184.612577 
L 161.454335 180.717378 
L 161.895118 182.591464 
L 161.975261 189.21834 
L 162.496186 182.9976 
L 162.93697 182.686771 
L 163.017112 183.485056 
L 163.538038 187.342546 
L 163.978821 185.806309 
L 164.058963 183.171993 
L 164.499747 188.120328 
L 164.579889 185.347192 
L 165.020672 180.280152 
L 165.100815 183.013973 
L 165.541598 186.159316 
L 165.621741 183.723733 
L 166.062524 180.88518 
L 166.142666 181.513414 
L 166.58345 183.621957 
L 166.663592 188.828315 
L 166.743734 180.083162 
L 167.184518 180.495419 
L 167.26466 185.167168 
L 167.785586 180.543554 
L 168.226369 183.44309 
L 168.306511 180.617615 
L 168.747295 180.992642 
L 168.827437 179.957279 
L 169.26822 185.403486 
L 169.348363 180.693584 
L 169.789146 180.359501 
L 169.869289 181.491367 
L 170.390214 180.027612 
L 170.830998 180.240703 
L 170.91114 180.743724 
L 171.351923 179.831043 
L 171.432066 180.577669 
L 171.872849 182.698945 
L 171.952991 189.276672 
L 172.473917 181.024337 
L 172.9147 180.51473 
L 172.994843 188.746297 
L 173.515768 177.742514 
L 173.956552 179.6666 
L 174.036694 182.370524 
L 174.477477 179.256672 
L 174.55762 186.509969 
L 174.998403 181.228404 
L 175.078546 178.518328 
L 175.519329 188.764556 
L 175.599471 179.506603 
L 176.040255 176.957102 
L 176.120397 181.715881 
L 176.641323 178.879765 
L 177.082106 179.110103 
L 177.162248 177.383283 
L 177.603032 180.261918 
L 177.683174 177.618252 
L 177.763316 184.088177 
L 178.2041 180.574445 
L 178.284242 178.167081 
L 178.725025 177.050455 
L 178.805168 182.336529 
L 179.245951 180.031539 
L 179.326094 177.008574 
L 179.847019 185.281713 
L 180.367945 176.595468 
L 180.808728 175.915878 
L 180.888871 177.63837 
L 181.329654 176.918359 
L 181.409796 178.302799 
L 181.85058 175.852137 
L 181.930722 176.954616 
L 182.371505 185.671617 
L 182.451648 182.418675 
L 182.892431 180.372719 
L 182.972573 175.692162 
L 183.934282 176.246175 
L 184.014425 174.133279 
L 184.976134 178.690196 
L 185.056276 178.29682 
L 185.49706 180.662675 
L 185.577202 177.298096 
L 186.017985 179.143233 
L 186.098128 175.313997 
L 186.538911 174.750414 
L 186.619053 181.165963 
L 187.059837 175.640995 
L 187.139979 175.841436 
L 187.580762 174.608976 
L 187.660905 184.511478 
L 188.18183 174.221224 
L 188.622614 174.617915 
L 188.782899 175.182714 
L 189.223682 174.959447 
L 189.303824 173.89986 
L 189.744608 174.922105 
L 189.82475 173.924534 
L 190.265533 174.691297 
L 190.345676 175.113303 
L 190.786459 174.997043 
L 190.866601 175.523331 
L 191.307385 179.500071 
L 191.387527 175.879119 
L 191.82831 185.857218 
L 191.908453 175.460928 
L 192.349236 188.975512 
L 192.429378 173.092177 
L 192.870162 183.050878 
L 192.950304 175.568521 
L 193.391087 177.919345 
L 193.47123 174.430227 
L 193.912013 174.556303 
L 193.992156 174.951185 
L 194.432939 174.14438 
L 194.513081 171.240312 
L 195.034007 175.796255 
L 195.47479 171.340604 
L 195.554933 183.047242 
L 196.075858 172.343065 
L 196.516642 174.764632 
L 196.596784 172.890221 
L 197.037567 173.732383 
L 197.11771 180.701619 
L 197.558493 171.612397 
L 197.638635 173.01995 
L 198.079419 172.090678 
L 198.159561 181.027278 
L 198.680487 170.062595 
L 199.12127 178.506106 
L 199.201413 178.015941 
L 199.281555 169.468217 
L 199.722338 172.575483 
L 199.802481 171.530985 
L 200.243264 181.527293 
L 200.323406 187.741276 
L 200.76419 171.073813 
L 200.844332 173.506874 
L 201.285115 171.626851 
L 201.365258 175.443711 
L 201.806041 172.827568 
L 201.886183 170.01417 
L 202.326967 168.698125 
L 202.407109 173.547401 
L 202.928035 169.41362 
L 203.368818 172.352873 
L 203.448961 176.80431 
L 203.889744 173.211587 
L 203.969886 171.175586 
L 204.41067 168.165694 
L 204.490812 172.610797 
L 204.931595 167.935043 
L 205.011738 170.399199 
L 205.452521 170.312631 
L 205.532663 169.844979 
L 205.973447 172.498955 
L 206.053589 168.857439 
L 206.574515 167.815933 
L 207.015298 171.460259 
L 207.09544 183.16711 
L 207.536224 167.724821 
L 207.616366 175.613273 
L 208.057149 179.916277 
L 208.137292 170.738654 
L 208.578075 169.318986 
L 208.658218 173.749087 
L 209.099001 167.553725 
L 209.179143 170.94318 
L 209.619927 169.516903 
L 209.700069 177.411046 
L 210.220995 169.082451 
L 210.301137 169.498333 
L 210.74192 171.967435 
L 210.822063 167.952728 
L 211.262846 170.184386 
L 211.342988 171.556697 
L 211.783772 171.970533 
L 211.863914 165.251045 
L 212.304697 169.661362 
L 212.38484 169.105473 
L 212.825623 176.499585 
L 212.905766 172.166937 
L 213.426691 166.465381 
L 213.947617 177.773202 
L 214.3884 168.709105 
L 214.468543 168.739778 
L 214.909326 169.70253 
L 214.989468 166.848345 
L 215.430252 166.536743 
L 215.510394 167.105179 
L 215.951177 165.713256 
L 216.03132 166.928697 
L 216.472103 180.171545 
L 216.552245 174.511006 
L 216.993029 178.218922 
L 217.073171 168.037382 
L 217.513954 173.265615 
L 217.594097 171.491796 
L 218.03488 168.638427 
L 218.115023 165.20291 
L 218.635948 170.013758 
L 219.156874 163.739833 
L 219.597657 170.356604 
L 219.6778 170.076107 
L 220.118583 165.363582 
L 220.198725 168.13569 
L 220.639509 170.472168 
L 220.719651 167.105849 
L 221.160434 168.743927 
L 221.240577 166.679131 
L 221.320719 175.255204 
L 221.761502 165.901745 
L 221.841645 171.922783 
L 222.282428 172.704759 
L 222.362571 176.83305 
L 222.803354 182.235042 
L 222.883496 164.978008 
L 223.32428 172.27633 
L 223.404422 165.790029 
L 223.845205 162.966971 
L 223.925348 165.599934 
L 224.366131 170.925591 
L 224.446273 168.330893 
L 224.887057 171.056568 
L 224.967199 179.65227 
L 225.407982 165.25109 
L 225.488125 168.828036 
L 225.928908 170.677636 
L 226.00905 168.651933 
L 226.449834 164.635225 
L 226.529976 168.399568 
L 226.970759 169.029667 
L 227.050902 163.920364 
L 227.571828 169.727839 
L 228.092753 166.689753 
L 228.533537 163.587549 
L 228.613679 165.576045 
L 229.054462 170.737964 
L 229.134605 167.963675 
L 229.575388 166.06819 
L 229.65553 170.825168 
L 230.096314 171.113703 
L 230.176456 179.050601 
L 230.617239 162.279537 
L 230.697382 173.946931 
L 231.218307 166.423273 
L 231.659091 163.210832 
L 231.739233 177.033296 
L 232.260159 167.645182 
L 232.340301 167.708303 
L 232.781085 170.576011 
L 232.861227 168.756563 
L 233.30201 168.435141 
L 233.382153 162.893681 
L 233.822936 163.030441 
L 233.903078 180.960569 
L 234.343862 164.233269 
L 234.424004 164.553924 
L 234.864787 171.01818 
L 234.94493 170.383737 
L 235.385713 175.691907 
L 235.465855 174.415715 
L 235.986781 180.712887 
L 236.427564 164.705916 
L 236.507707 169.780255 
L 236.94849 178.326546 
L 237.028633 163.326851 
L 237.469416 167.138473 
L 237.549558 166.513687 
L 237.990342 173.146671 
L 238.070484 170.426704 
L 238.511267 168.781662 
L 238.59141 163.277925 
L 239.032193 167.900626 
L 239.112335 173.980683 
L 239.553119 164.658476 
L 239.633261 176.512313 
L 240.154187 163.723806 
L 240.59497 168.6546 
L 240.675112 165.740022 
L 241.115896 177.561001 
L 241.196038 170.283575 
L 241.636821 164.540736 
L 241.716964 166.388348 
L 242.157747 169.354434 
L 242.23789 165.500141 
L 242.678673 167.266855 
L 242.758815 169.928702 
L 243.199599 163.01288 
L 243.279741 170.321015 
L 243.359883 167.0731 
L 243.800667 166.928652 
L 243.880809 168.081227 
L 244.321592 178.834459 
L 244.401735 162.211144 
L 244.842518 164.356639 
L 244.92266 163.508793 
L 245.363444 169.150994 
L 245.443586 167.670978 
L 245.884369 168.42261 
L 245.964512 167.341935 
L 246.405295 164.090705 
L 246.485438 166.57367 
L 246.926221 160.568143 
L 247.006363 167.804636 
L 247.447147 169.6054 
L 247.527289 168.995551 
L 247.968072 168.577519 
L 248.048215 164.557274 
L 248.488998 160.999471 
L 248.56914 165.431948 
L 249.009924 163.966219 
L 249.090066 177.469161 
L 249.530849 161.254055 
L 249.610992 163.502811 
L 250.051775 162.047604 
L 250.131917 171.637094 
L 250.572701 163.792553 
L 250.652843 163.82617 
L 251.093626 159.939165 
L 251.173769 165.266333 
L 251.614552 168.827644 
L 251.694695 166.584279 
L 252.135478 168.952123 
L 252.21562 163.179439 
L 252.656403 159.985434 
L 252.736546 167.915533 
L 253.177329 175.282389 
L 253.257472 165.716355 
L 253.698255 161.350868 
L 253.778397 162.225846 
L 254.219181 175.243888 
L 254.299323 160.984681 
L 254.379465 167.40996 
L 254.820249 165.573341 
L 254.900391 167.859506 
L 255.341174 173.511445 
L 255.421317 166.507994 
L 255.8621 165.38396 
L 255.942243 163.136145 
L 256.383026 167.551293 
L 256.463168 166.570825 
L 256.903952 163.46841 
L 256.984094 160.439155 
L 257.424877 160.29963 
L 257.50502 159.801168 
L 258.025945 168.722762 
L 258.466729 165.501689 
L 258.546871 163.124449 
L 258.987654 162.607601 
L 259.067797 171.427697 
L 259.50858 162.066389 
L 260.029506 174.904725 
L 260.109648 165.732653 
L 260.550431 161.059039 
L 260.630574 166.578066 
L 261.071357 163.995575 
L 261.1515 165.083689 
L 261.592283 165.431245 
L 261.672425 162.601853 
L 262.113208 169.118996 
L 262.193351 166.735783 
L 262.634134 163.299352 
L 262.714277 167.094742 
L 263.235202 166.56665 
L 263.675986 168.652299 
L 263.756128 180.901545 
L 264.196911 160.207892 
L 264.277054 162.746486 
L 264.717837 167.352851 
L 264.797979 167.051114 
L 264.878122 164.006727 
L 265.318905 172.134302 
L 265.399048 159.295462 
L 265.839831 167.952851 
L 265.919973 167.118067 
L 266.360757 177.776503 
L 266.440899 170.015618 
L 266.881682 165.255819 
L 266.961825 166.202162 
L 267.402608 165.884105 
L 267.48275 165.605116 
L 267.923534 165.391973 
L 268.003676 160.931693 
L 268.444459 176.828255 
L 268.524602 162.062625 
L 269.045527 176.493838 
L 269.486311 176.386564 
L 269.566453 164.605863 
L 270.007236 159.115363 
L 270.087379 167.990496 
L 270.608305 164.523713 
L 271.049088 167.540637 
L 271.12923 180.436817 
L 271.570013 158.131194 
L 271.650156 167.098402 
L 272.090939 159.492397 
L 272.171082 171.060917 
L 272.692007 159.467709 
L 273.132791 164.306222 
L 273.212933 166.888831 
L 273.653716 166.916158 
L 273.733859 170.519232 
L 274.174642 159.677534 
L 274.254784 165.824082 
L 274.695568 158.689069 
L 274.77571 159.58061 
L 275.216493 166.122468 
L 275.296636 165.055697 
L 275.737419 165.940239 
L 275.817561 158.777799 
L 275.897704 166.977014 
L 276.338487 168.151908 
L 276.41863 159.601669 
L 276.859413 157.224248 
L 276.939555 158.368959 
L 277.380339 158.609931 
L 277.460481 160.165961 
L 277.901264 173.682408 
L 277.981407 166.719657 
L 278.42219 166.151804 
L 278.502332 167.11638 
L 278.943116 165.847826 
L 279.023258 162.20464 
L 279.464041 156.900729 
L 279.544184 165.584401 
L 279.984967 158.456791 
L 280.06511 188.396413 
L 280.505893 159.866053 
L 280.586035 163.487003 
L 281.026818 167.105794 
L 281.106961 161.548476 
L 281.547744 165.519143 
L 281.627887 171.654358 
L 282.669738 157.367791 
L 283.110521 162.105219 
L 283.190664 159.158942 
L 283.631447 159.337368 
L 283.711589 158.244615 
L 284.152373 164.665863 
L 284.232515 160.581812 
L 284.673298 158.419204 
L 284.753441 165.867866 
L 285.194224 172.641751 
L 285.274366 160.928089 
L 285.71515 160.425622 
L 285.795292 161.731573 
L 286.236075 175.954723 
L 286.757001 163.406057 
L 286.837144 167.819762 
L 286.917286 165.133539 
L 287.438212 159.708442 
L 287.878995 159.755614 
L 287.959137 175.109445 
L 288.399921 160.828238 
L 288.480063 174.85139 
L 288.920846 158.668319 
L 289.000989 164.779956 
L 289.441772 165.432085 
L 289.521914 159.244253 
L 289.962698 164.148639 
L 290.04284 159.828488 
L 290.483623 158.525405 
L 290.563766 162.863823 
L 291.004549 159.889992 
L 291.084692 156.729122 
L 291.525475 175.793771 
L 291.605617 158.846922 
L 292.046401 177.988589 
L 292.126543 164.169057 
L 292.567326 168.059352 
L 292.647469 163.673265 
L 293.088252 162.916249 
L 293.168394 165.939749 
L 293.609178 167.176101 
L 293.68932 159.220643 
L 294.130103 164.182324 
L 294.210246 166.35369 
L 294.651029 166.578128 
L 294.731171 158.860692 
L 295.171955 157.692645 
L 295.252097 164.237796 
L 295.69288 163.357255 
L 295.773023 168.483177 
L 296.293949 157.108909 
L 296.734732 156.795981 
L 296.814874 164.599262 
L 297.255658 158.615446 
L 297.3358 166.333641 
L 297.776583 170.851826 
L 297.936868 158.812566 
L 298.377651 165.309858 
L 298.978719 158.566541 
L 299.419503 164.950655 
L 299.499645 163.520938 
L 299.940428 175.435417 
L 300.020571 162.008183 
L 300.461354 158.207196 
L 300.541497 182.055078 
L 300.98228 157.759502 
L 301.062422 172.417655 
L 301.503206 161.229004 
L 301.583348 164.878431 
L 302.024131 155.741823 
L 302.104274 164.390794 
L 302.545057 167.687182 
L 302.625199 158.754929 
L 303.065983 165.756134 
L 303.146125 164.702878 
L 303.586908 156.744633 
L 303.667051 165.132891 
L 304.107834 156.521211 
L 304.187976 171.641572 
L 304.62876 157.694142 
L 304.708902 177.233901 
L 305.149685 158.401809 
L 305.229828 170.958564 
L 305.750754 162.793223 
L 306.191537 157.121942 
L 306.271679 160.98637 
L 306.712463 157.139886 
L 306.792605 160.409014 
L 307.233388 157.581884 
L 307.313531 162.874332 
L 307.754314 160.542116 
L 307.834456 157.991214 
L 308.27524 168.994284 
L 308.355382 160.843988 
L 308.796165 162.238159 
L 308.95645 157.745634 
L 309.397233 172.598141 
L 309.477376 161.535685 
L 309.998302 156.605847 
L 310.439085 167.000926 
L 310.519227 159.299251 
L 310.960011 166.069221 
L 311.040153 175.308898 
L 311.561079 158.19063 
L 312.082004 167.812232 
L 312.522788 157.439752 
L 312.60293 162.581313 
L 313.043713 167.398256 
L 313.123856 166.969098 
L 313.564639 157.391298 
L 313.644781 157.784504 
L 314.085565 157.928859 
L 314.165707 163.767381 
L 314.60649 163.060422 
L 314.686633 157.914757 
L 315.127416 160.977516 
L 315.207559 162.554647 
L 315.648342 156.843143 
L 315.728484 179.026321 
L 316.24941 157.502622 
L 316.690193 158.968027 
L 316.770336 160.306662 
L 317.211119 160.532372 
L 317.291261 155.438473 
L 317.732045 160.694712 
L 317.812187 159.012835 
L 318.25297 162.564678 
L 318.333113 155.993741 
L 318.773896 159.566194 
L 318.854038 157.936986 
L 319.294822 155.808005 
L 319.815747 162.786243 
L 319.89589 159.692078 
L 319.976032 168.869536 
L 320.416816 156.000119 
L 320.496958 162.185154 
L 320.937741 156.929848 
L 321.017884 157.381593 
L 321.458667 173.219513 
L 321.538809 160.788356 
L 321.979593 155.859467 
L 322.059735 155.933363 
L 322.500518 159.638221 
L 322.580661 168.066721 
L 323.021444 156.777368 
L 323.101586 163.44136 
L 323.54237 159.135262 
L 323.622512 168.306028 
L 324.063295 156.736269 
L 324.063295 156.736269 
" clip-path="url(#pa60263bc3e)" style="fill: none; stroke: #1f77b4; stroke-width: 1.5; stroke-linecap: square"/>
   </g>
   <g id="patch_3">
    <path d="M 55.7525 304.879375 
L 55.7525 23.791875 
" style="fill: none; stroke: #000000; stroke-width: 0.8; stroke-linejoin: miter; stroke-linecap: square"/>
   </g>
   <g id="patch_4">
    <path d="M 336.84 304.879375 
L 336.84 23.791875 
" style="fill: none; stroke: #000000; stroke-width: 0.8; stroke-linejoin: miter; stroke-linecap: square"/>
   </g>
   <g id="patch_5">
    <path d="M 55.7525 304.879375 
L 336.84 304.879375 
" style="fill: none; stroke: #000000; stroke-width: 0.8; stroke-linejoin: miter; stroke-linecap: square"/>
   </g>
   <g id="patch_6">
    <path d="M 55.7525 23.791875 
L 336.84 23.791875 
" style="fill: none; stroke: #000000; stroke-width: 0.8; stroke-linejoin: miter; stroke-linecap: square"/>
   </g>
  </g>
 </g>
 <defs>
  <clipPath id="pa60263bc3e">
   <rect x="55.7525" y="23.791875" width="281.0875" height="281.0875"/>
  </clipPath>
 </defs>
</svg>
